<svg width="22" height="22" viewBox="0 0 22 22" fill="none" xmlns="http://www.w3.org/2000/svg">
<path d="M4.80748 17.9369C5.45666 18.9966 6.36691 19.872 7.45114 20.4793C8.53538 21.0865 9.75731 21.4055 11 21.4055C12.2428 21.4055 13.4647 21.0865 14.5489 20.4793C15.6331 19.872 16.5434 18.9966 17.1926 17.9369H18.6306C18.9986 17.9369 19.3514 17.7908 19.6116 17.5306C19.8718 17.2704 20.018 16.9175 20.018 16.5496V1.9821C20.018 1.61415 19.8718 1.26126 19.6116 1.00108C19.3514 0.740896 18.9986 0.594727 18.6306 0.594727H3.36946C3.00151 0.594727 2.64862 0.740896 2.38844 1.00108C2.12826 1.26126 1.98209 1.61415 1.98209 1.9821V16.5496C1.98209 16.9175 2.12826 17.2704 2.38844 17.5306C2.64862 17.7908 3.00151 17.9369 3.36946 17.9369H4.80748ZM11 20.7117C9.69664 20.7117 8.42253 20.3252 7.3388 19.6011C6.25508 18.8769 5.41041 17.8477 4.91163 16.6435C4.41285 15.4394 4.28234 14.1143 4.53662 12.836C4.7909 11.5576 5.41854 10.3834 6.34017 9.46178C7.2618 8.54015 8.43604 7.91251 9.71438 7.65823C10.9927 7.40395 12.3178 7.53446 13.5219 8.03324C14.7261 8.53203 15.7553 9.37669 16.4794 10.4604C17.2036 11.5441 17.5901 12.8183 17.5901 14.1216C17.5881 15.8688 16.8932 17.5439 15.6578 18.7794C14.4223 20.0148 12.7472 20.7097 11 20.7117ZM3.36946 1.28841H18.6306C18.8146 1.28841 18.991 1.3615 19.1211 1.49159C19.2512 1.62168 19.3243 1.79813 19.3243 1.9821V3.36948H2.67577V1.9821C2.67577 1.79813 2.74886 1.62168 2.87895 1.49159C3.00904 1.3615 3.18548 1.28841 3.36946 1.28841ZM2.67577 16.5496V4.06317H19.3243V16.5496C19.3243 16.7335 19.2512 16.91 19.1211 17.0401C18.991 17.1702 18.8146 17.2432 18.6306 17.2432H17.571C18.04 16.2567 18.2809 15.1774 18.276 14.0851C18.2712 12.9928 18.0206 11.9156 17.5428 10.9334C17.065 9.95112 16.3723 9.08897 15.5161 8.4108C14.6598 7.73263 13.6619 7.25584 12.5963 7.01576C11.5308 6.77567 10.4248 6.77845 9.36046 7.02388C8.2961 7.26931 7.30061 7.75111 6.44776 8.43356C5.59492 9.11602 4.90657 9.98164 4.43374 10.9663C3.96091 11.9509 3.7157 13.0294 3.71631 14.1216C3.71757 15.2024 3.96113 16.2691 4.42907 17.2432H3.36946C3.18548 17.2432 3.00904 17.1702 2.87895 17.0401C2.74886 16.91 2.67577 16.7335 2.67577 16.5496Z" fill="#101828"/>
<path d="M6.83776 13.9965C6.84415 14.1425 6.89535 14.2831 6.9844 14.399C7.07345 14.5149 7.19603 14.6006 7.33548 14.6444L9.45644 15.3357L10.1304 17.4379C10.1739 17.5776 10.2595 17.7005 10.3754 17.7899C10.4914 17.8792 10.632 17.9306 10.7783 17.937H10.8164C10.9603 17.9374 11.1011 17.8955 11.2213 17.8164C11.3415 17.7373 11.4358 17.6246 11.4924 17.4923L14.0591 11.6706C14.1191 11.5371 14.1371 11.3886 14.1107 11.2447C14.0844 11.1008 14.0148 10.9683 13.9114 10.8648C13.8079 10.7613 13.6754 10.6918 13.5315 10.6654C13.3876 10.639 13.239 10.6571 13.1056 10.7171L7.2845 13.2813C7.14558 13.3402 7.02816 13.4404 6.94823 13.5684C6.8683 13.6964 6.82973 13.8458 6.83776 13.9965ZM3.71617 2.67587H4.06301C4.155 2.67587 4.24322 2.63932 4.30827 2.57428C4.37331 2.50923 4.40986 2.42101 4.40986 2.32902C4.40986 2.23703 4.37331 2.14881 4.30827 2.08377C4.24322 2.01872 4.155 1.98218 4.06301 1.98218H3.71617C3.62418 1.98218 3.53596 2.01872 3.47091 2.08377C3.40587 2.14881 3.36932 2.23703 3.36932 2.32902C3.36932 2.42101 3.40587 2.50923 3.47091 2.57428C3.53596 2.63932 3.62418 2.67587 3.71617 2.67587ZM5.45039 2.67587H5.79723C5.88922 2.67587 5.97744 2.63932 6.04249 2.57428C6.10753 2.50923 6.14408 2.42101 6.14408 2.32902C6.14408 2.23703 6.10753 2.14881 6.04249 2.08377C5.97744 2.01872 5.88922 1.98218 5.79723 1.98218H5.45039C5.3584 1.98218 5.27018 2.01872 5.20513 2.08377C5.14009 2.14881 5.10354 2.23703 5.10354 2.32902C5.10354 2.42101 5.14009 2.50923 5.20513 2.57428C5.27018 2.63932 5.3584 2.67587 5.45039 2.67587ZM7.18461 2.67587H7.53145C7.62344 2.67587 7.71166 2.63932 7.77671 2.57428C7.84175 2.50923 7.8783 2.42101 7.8783 2.32902C7.8783 2.23703 7.84175 2.14881 7.77671 2.08377C7.71166 2.01872 7.62344 1.98218 7.53145 1.98218H7.18461C7.09262 1.98218 7.0044 2.01872 6.93935 2.08377C6.87431 2.14881 6.83776 2.23703 6.83776 2.32902C6.83776 2.42101 6.87431 2.50923 6.93935 2.57428C7.0044 2.63932 7.09262 2.67587 7.18461 2.67587ZM14.8152 2.67587H18.2836C18.3756 2.67587 18.4638 2.63932 18.5289 2.57428C18.5939 2.50923 18.6305 2.42101 18.6305 2.32902C18.6305 2.23703 18.5939 2.14881 18.5289 2.08377C18.4638 2.01872 18.3756 1.98218 18.2836 1.98218H14.8152C14.7232 1.98218 14.635 2.01872 14.5699 2.08377C14.5049 2.14881 14.4683 2.23703 14.4683 2.32902C14.4683 2.42101 14.5049 2.50923 14.5699 2.57428C14.635 2.63932 14.7232 2.67587 14.8152 2.67587Z" fill="#101828"/>
<path d="M10.9999 8.22534C10.9079 8.22534 10.8197 8.26188 10.7547 8.32693C10.6896 8.39198 10.6531 8.4802 10.6531 8.57219C10.6531 8.66417 10.6896 8.7524 10.7547 8.81744C10.8197 8.88249 10.9079 8.91903 10.9999 8.91903C12.3076 8.91968 13.5671 9.413 14.5274 10.3007C15.4876 11.1884 16.0782 12.4053 16.1814 13.7089C16.2846 15.0126 15.8928 16.3072 15.0841 17.335C14.2755 18.3627 13.1093 19.048 11.818 19.2543C10.5266 19.4607 9.20495 19.173 8.11628 18.4484C7.02761 17.7239 6.25187 16.6158 5.94364 15.345C5.6354 14.0741 5.8173 12.7338 6.45309 11.591C7.08888 10.4482 8.13188 9.58698 9.37426 9.17882C9.46165 9.15002 9.53403 9.0877 9.57546 9.00554C9.6169 8.92339 9.624 8.82814 9.5952 8.74075C9.56641 8.65336 9.50408 8.58099 9.42193 8.53956C9.33978 8.49812 9.24453 8.49102 9.15714 8.51981C7.7484 8.98255 6.56572 9.95907 5.84477 11.2548C5.12381 12.5505 4.9175 14.0703 5.26696 15.5113C5.61642 16.9523 6.49599 18.2088 7.73039 19.0303C8.9648 19.8519 10.4634 20.1781 11.9276 19.9442C13.3918 19.7102 14.7142 18.9331 15.6311 17.7678C16.548 16.6025 16.9922 15.1345 16.8752 13.6564C16.7582 12.1782 16.0885 10.7984 14.9997 9.79187C13.9108 8.78535 12.4827 8.22602 10.9999 8.22534Z" fill="#101828"/>
</svg>
