<svg width="22" height="22" viewBox="0 0 22 22" fill="none" xmlns="http://www.w3.org/2000/svg">
<g clip-path="url(#clip0_6607_264)">
<path d="M15.2551 7.219L18.7955 3.67854C19.1431 3.90861 19.5638 4.00138 19.9759 3.93887C20.3881 3.87636 20.7623 3.66301 21.026 3.34021C21.2898 3.0174 21.4242 2.60816 21.4033 2.19184C21.3824 1.77552 21.2076 1.3818 20.9129 1.08704C20.6181 0.79229 20.2244 0.617509 19.8081 0.596601C19.3918 0.575693 18.9825 0.710147 18.6597 0.973887C18.3369 1.23763 18.1236 1.61185 18.061 2.02398C17.9985 2.43611 18.0913 2.85677 18.3214 3.20438L14.7809 6.74484C13.8265 5.89352 12.6122 5.39006 11.3354 5.31631V3.92434C11.7425 3.84124 12.1042 3.60993 12.3505 3.27527C12.5967 2.9406 12.71 2.52642 12.6682 2.11302C12.6264 1.69962 12.4327 1.31645 12.1244 1.0378C11.8162 0.75915 11.4155 0.604869 11 0.604869C10.5845 0.604869 10.1838 0.75915 9.87559 1.0378C9.56737 1.31645 9.3736 1.69962 9.33184 2.11302C9.29008 2.52642 9.4033 2.9406 9.64956 3.27527C9.89582 3.60993 10.2576 3.84124 10.6647 3.92434V5.31665C9.38788 5.39039 8.17355 5.89385 7.21912 6.74517L3.67866 3.20438C3.90873 2.85677 4.00151 2.43611 3.93899 2.02398C3.87648 1.61185 3.66313 1.23763 3.34033 0.973887C3.01753 0.710147 2.60828 0.575693 2.19196 0.596601C1.77564 0.617509 1.38192 0.79229 1.08717 1.08704C0.792412 1.3818 0.617631 1.77552 0.596723 2.19184C0.575815 2.60816 0.710269 3.0174 0.974009 3.34021C1.23775 3.66301 1.61197 3.87636 2.0241 3.93887C2.43624 4.00138 2.8569 3.90861 3.2045 3.67854L6.74496 7.219C5.89364 8.17343 5.39018 9.38775 5.31643 10.6646H3.92446C3.84136 10.2575 3.61006 9.8957 3.27539 9.64944C2.94073 9.40318 2.52654 9.28995 2.11314 9.33172C1.69974 9.37348 1.31657 9.56725 1.03792 9.87547C0.759272 10.1837 0.604991 10.5844 0.604991 10.9999C0.604991 11.4154 0.759272 11.8161 1.03792 12.1243C1.31657 12.4325 1.69974 12.6263 2.11314 12.6681C2.52654 12.7098 2.94073 12.5966 3.27539 12.3504C3.61006 12.1041 3.84136 11.7423 3.92446 11.3352H5.31677C5.39051 12.612 5.89397 13.8264 6.7453 14.7808L3.2045 18.3213C2.8569 18.0912 2.43624 17.9984 2.0241 18.0609C1.61197 18.1234 1.23775 18.3368 0.974009 18.6596C0.710269 18.9824 0.575815 19.3916 0.596723 19.808C0.617631 20.2243 0.792412 20.618 1.08717 20.9128C1.38192 21.2075 1.77564 21.3823 2.19196 21.4032C2.60828 21.4241 3.01753 21.2896 3.34033 21.0259C3.66313 20.7622 3.87648 20.3879 3.93899 19.9758C4.00151 19.5637 3.90873 19.143 3.67866 18.7954L7.21912 15.255C8.17355 16.1063 9.38788 16.6097 10.6647 16.6835V18.0755C10.2576 18.1586 9.89582 18.3899 9.64956 18.7245C9.4033 19.0592 9.29008 19.4734 9.33184 19.8868C9.3736 20.3002 9.56737 20.6833 9.87559 20.962C10.1838 21.2406 10.5845 21.3949 11 21.3949C11.4155 21.3949 11.8162 21.2406 12.1244 20.962C12.4327 20.6833 12.6264 20.3002 12.6682 19.8868C12.71 19.4734 12.5967 19.0592 12.3505 18.7245C12.1042 18.3899 11.7425 18.1586 11.3354 18.0755V16.6835C12.6122 16.6097 13.8265 16.1063 14.7809 15.255L18.3214 18.7954C18.0913 19.143 17.9985 19.5637 18.061 19.9758C18.1236 20.3879 18.3369 20.7622 18.6597 21.0259C18.9825 21.2896 19.3918 21.4241 19.8081 21.4032C20.2244 21.3823 20.6181 21.2075 20.9129 20.9128C21.2076 20.618 21.3824 20.2243 21.4033 19.808C21.4242 19.3916 21.2898 18.9824 21.026 18.6596C20.7623 18.3368 20.3881 18.1234 19.9759 18.0609C19.5638 17.9984 19.1431 18.0912 18.7955 18.3213L15.2551 14.7808C16.1064 13.8264 16.6099 12.612 16.6836 11.3352H18.0756C18.1587 11.7423 18.39 12.1041 18.7247 12.3504C19.0593 12.5966 19.4735 12.7098 19.8869 12.6681C20.3003 12.6263 20.6835 12.4325 20.9621 12.1243C21.2408 11.8161 21.3951 11.4154 21.3951 10.9999C21.3951 10.5844 21.2408 10.1837 20.9621 9.87547C20.6835 9.56725 20.3003 9.37348 19.8869 9.33172C19.4735 9.28995 19.0593 9.40318 18.7247 9.64944C18.39 9.8957 18.1587 10.2575 18.0756 10.6646H16.6836C16.6099 9.38775 16.1064 8.17343 15.2551 7.219ZM2.28132 12.0059C2.08235 12.0059 1.88785 11.9469 1.72242 11.8364C1.55698 11.7258 1.42804 11.5687 1.3519 11.3849C1.27575 11.2011 1.25583 10.9988 1.29465 10.8036C1.33346 10.6085 1.42928 10.4292 1.56997 10.2885C1.71066 10.1479 1.88991 10.052 2.08506 10.0132C2.28021 9.97441 2.48248 9.99433 2.6663 10.0705C2.85013 10.1466 3.00724 10.2756 3.11778 10.441C3.22832 10.6064 3.28733 10.8009 3.28733 10.9999C3.28733 11.2667 3.18134 11.5226 2.99267 11.7113C2.80401 11.8999 2.54813 12.0059 2.28132 12.0059ZM19.7187 9.99389C19.9177 9.99389 20.1122 10.0529 20.2776 10.1634C20.4431 10.274 20.572 10.4311 20.6481 10.6149C20.7243 10.7987 20.7442 11.001 20.7054 11.1962C20.6666 11.3913 20.5708 11.5706 20.4301 11.7113C20.2894 11.8519 20.1101 11.9478 19.915 11.9866C19.7198 12.0254 19.5176 12.0055 19.3337 11.9293C19.1499 11.8532 18.9928 11.7242 18.8823 11.5588C18.7717 11.3934 18.7127 11.1989 18.7127 10.9999C18.7127 10.7331 18.8187 10.4772 19.0074 10.2885C19.196 10.0999 19.4519 9.99389 19.7187 9.99389ZM19.7187 1.2752C19.9177 1.2752 20.1122 1.3342 20.2776 1.44474C20.4431 1.55528 20.572 1.7124 20.6481 1.89622C20.7243 2.08004 20.7442 2.28232 20.7054 2.47746C20.6666 2.67261 20.5708 2.85186 20.4301 2.99255C20.2894 3.13324 20.1101 3.22906 19.915 3.26787C19.7198 3.30669 19.5176 3.28677 19.3337 3.21063C19.1499 3.13448 18.9928 3.00554 18.8823 2.84011C18.7717 2.67467 18.7127 2.48017 18.7127 2.2812C18.7127 2.01439 18.8187 1.75851 19.0074 1.56985C19.196 1.38119 19.4519 1.2752 19.7187 1.2752ZM9.99402 2.2812C9.99402 2.08223 10.053 1.88773 10.1636 1.72229C10.2741 1.55686 10.4312 1.42792 10.615 1.35177C10.7989 1.27563 11.0011 1.25571 11.1963 1.29453C11.3914 1.33334 11.5707 1.42916 11.7114 1.56985C11.8521 1.71054 11.9479 1.88979 11.9867 2.08494C12.0255 2.28008 12.0056 2.48236 11.9294 2.66618C11.8533 2.85 11.7244 3.00712 11.5589 3.11766C11.3935 3.2282 11.199 3.2872 11 3.2872C10.7332 3.2872 10.4773 3.18121 10.2887 2.99255C10.1 2.80389 9.99402 2.54801 9.99402 2.2812ZM2.28132 3.2872C2.08235 3.2872 1.88785 3.2282 1.72242 3.11766C1.55698 3.00712 1.42804 2.85 1.3519 2.66618C1.27575 2.48236 1.25583 2.28008 1.29465 2.08494C1.33346 1.88979 1.42928 1.71054 1.56997 1.56985C1.71066 1.42916 1.88991 1.33334 2.08506 1.29453C2.28021 1.25571 2.48248 1.27563 2.6663 1.35177C2.85013 1.42792 3.00724 1.55686 3.11778 1.72229C3.22832 1.88773 3.28733 2.08223 3.28733 2.2812C3.28733 2.54801 3.18134 2.80389 2.99267 2.99255C2.80401 3.18121 2.54813 3.2872 2.28132 3.2872ZM2.28132 20.7246C2.08235 20.7246 1.88785 20.6656 1.72242 20.5551C1.55698 20.4445 1.42804 20.2874 1.3519 20.1036C1.27575 19.9198 1.25583 19.7175 1.29465 19.5223C1.33346 19.3272 1.42928 19.1479 1.56997 19.0072C1.71066 18.8666 1.88991 18.7707 2.08506 18.7319C2.28021 18.6931 2.48248 18.713 2.6663 18.7892C2.85013 18.8653 3.00724 18.9943 3.11778 19.1597C3.22832 19.3251 3.28733 19.5196 3.28733 19.7186C3.28733 19.9854 3.18134 20.2413 2.99267 20.4299C2.80401 20.6186 2.54813 20.7246 2.28132 20.7246ZM12.006 19.7186C12.006 19.9176 11.947 20.1121 11.8365 20.2775C11.7259 20.4429 11.5688 20.5719 11.385 20.648C11.2012 20.7242 10.9989 20.7441 10.8038 20.7053C10.6086 20.6665 10.4294 20.5706 10.2887 20.4299C10.148 20.2893 10.0522 20.11 10.0133 19.9149C9.97453 19.7197 9.99445 19.5174 10.0706 19.3336C10.1467 19.1498 10.2757 18.9927 10.4411 18.8821C10.6066 18.7716 10.8011 18.7126 11 18.7126C11.2668 18.7126 11.5227 18.8186 11.7114 19.0072C11.9 19.1959 12.006 19.4518 12.006 19.7186ZM19.7187 18.7126C19.9177 18.7126 20.1122 18.7716 20.2776 18.8821C20.4431 18.9927 20.572 19.1498 20.6481 19.3336C20.7243 19.5174 20.7442 19.7197 20.7054 19.9149C20.6666 20.11 20.5708 20.2893 20.4301 20.4299C20.2894 20.5706 20.1101 20.6665 19.915 20.7053C19.7198 20.7441 19.5176 20.7242 19.3337 20.648C19.1499 20.5719 18.9928 20.4429 18.8823 20.2775C18.7717 20.1121 18.7127 19.9176 18.7127 19.7186C18.7127 19.4518 18.8187 19.1959 19.0074 19.0072C19.196 18.8186 19.4519 18.7126 19.7187 18.7126ZM11 16.0299C10.0052 16.0299 9.03267 15.7349 8.20549 15.1822C7.37831 14.6295 6.7336 13.8439 6.35289 12.9248C5.97218 12.0057 5.87257 10.9943 6.06665 10.0186C6.26074 9.04286 6.7398 8.1466 7.44326 7.44314C8.14672 6.73968 9.04298 6.26061 10.0187 6.06653C10.9944 5.87245 12.0058 5.97206 12.9249 6.35277C13.844 6.73348 14.6296 7.37819 15.1823 8.20537C15.735 9.03255 16.03 10.0051 16.03 10.9999C16.0285 12.3335 15.4981 13.612 14.5551 14.555C13.6121 15.498 12.3336 16.0284 11 16.0299Z" fill="#101828"/>
<path d="M14.2952 12.3936C14.2952 12.5502 14.2077 12.6907 14.0676 12.7607L11.1731 14.2275V11.2266L12.3586 10.6396V11.2256C12.3586 11.3614 12.4689 11.4717 12.6047 11.4717C12.7404 11.4716 12.8508 11.3613 12.8508 11.2256V10.3955L14.2952 9.68164V12.3936ZM10.6809 11.2217V14.2227L7.92603 12.7607C7.79029 12.6897 7.70541 12.5507 7.70532 12.3975V9.66992L10.6809 11.2217ZM12.1116 10.2129L10.929 10.7969L7.94556 9.24121L9.10962 8.62305L12.1116 10.2129ZM10.7405 7.75879C10.8565 7.69833 10.9954 7.69673 11.1125 7.75488H11.1135V7.75586L14.0608 9.24805L12.6555 9.94434L9.63306 8.34473L10.7395 7.75781L10.7405 7.75879Z" fill="#101828" stroke="white" stroke-width="0.1"/>
</g>
<defs>
<clipPath id="clip0_6607_264">
<rect width="22" height="22" fill="white"/>
</clipPath>
</defs>
</svg>
