<svg width="22" height="22" viewBox="0 0 22 22" fill="none" xmlns="http://www.w3.org/2000/svg">
<path d="M20.3025 11.4075L18.8369 11.4049C18.6947 10.8538 18.475 10.3257 18.1843 9.83638L19.2219 8.79873C19.317 8.70344 19.3704 8.57434 19.3704 8.43975C19.3704 8.30516 19.317 8.17606 19.2219 8.08078L17.784 6.64234C17.6873 6.54998 17.5587 6.49844 17.425 6.49844C17.2913 6.49844 17.1628 6.54998 17.0661 6.64234L16.0276 7.67745C15.5376 7.38787 15.0089 7.16949 14.4573 7.02889V5.56224C14.4573 5.42743 14.4038 5.29815 14.3084 5.20283C14.2131 5.10751 14.0838 5.05396 13.949 5.05396H11.9159C11.7811 5.05396 11.6518 5.10751 11.5565 5.20283C11.4612 5.29815 11.4076 5.42743 11.4076 5.56224L11.4051 7.02787C10.854 7.17006 10.3258 7.3898 9.83651 7.6805L8.79885 6.64234C8.70216 6.54998 8.57359 6.49844 8.43987 6.49844C8.30616 6.49844 8.17759 6.54998 8.0809 6.64234L6.64246 8.08078C6.5474 8.17606 6.49402 8.30516 6.49402 8.43975C6.49402 8.57434 6.5474 8.70344 6.64246 8.79873L7.67758 9.83715C7.38799 10.3272 7.16961 10.8559 7.02901 11.4075H5.56236C5.42755 11.4075 5.29827 11.461 5.20295 11.5564C5.10763 11.6517 5.05408 11.781 5.05408 11.9158V13.9489C5.05408 14.0837 5.10763 14.213 5.20295 14.3083C5.29827 14.4036 5.42755 14.4572 5.56236 14.4572L7.02799 14.4597C7.17017 15.0108 7.38991 15.539 7.68063 16.0283L6.64246 17.0659C6.5474 17.1612 6.49402 17.2903 6.49402 17.4249C6.49402 17.5595 6.5474 17.6886 6.64246 17.7839L8.0809 19.2223C8.17759 19.3147 8.30616 19.3662 8.43987 19.3662C8.57359 19.3662 8.70216 19.3147 8.79885 19.2223L9.83727 18.1872C10.3273 18.4768 10.856 18.6952 11.4076 18.8358V20.3024C11.4076 20.4372 11.4612 20.5665 11.5565 20.6618C11.6518 20.7572 11.7811 20.8107 11.9159 20.8107H13.949C14.0838 20.8107 14.2131 20.7572 14.3084 20.6618C14.4038 20.5665 14.4573 20.4372 14.4573 20.3024L14.4598 18.8368C15.011 18.6946 15.5391 18.4749 16.0284 18.1842L17.0661 19.2218C17.1628 19.3142 17.2913 19.3657 17.425 19.3657C17.5587 19.3657 17.6873 19.3142 17.784 19.2218L19.2224 17.7834C19.3175 17.6881 19.3709 17.559 19.3709 17.4244C19.3709 17.2898 19.3175 17.1607 19.2224 17.0654L18.1873 16.027C18.4769 15.5371 18.6953 15.0086 18.8359 14.4572H20.3025C20.4374 14.4572 20.5666 14.4036 20.662 14.3083C20.7573 14.213 20.8108 14.0837 20.8108 13.9489V11.9158C20.8108 11.781 20.7573 11.6517 20.662 11.5564C20.5666 11.461 20.4374 11.4075 20.3025 11.4075ZM20.3025 13.9489H18.8359C18.7232 13.9495 18.6139 13.9875 18.5252 14.0569C18.4364 14.1264 18.3733 14.2234 18.3457 14.3327C18.2154 14.8371 18.0149 15.3207 17.75 15.7693C17.6923 15.8662 17.6684 15.9796 17.6822 16.0915C17.696 16.2035 17.7467 16.3076 17.8262 16.3876L18.8641 17.4245L17.4264 18.863L16.3888 17.8251C16.3088 17.7455 16.2046 17.6949 16.0927 17.6811C15.9807 17.6673 15.8674 17.6911 15.7704 17.7488C15.3216 18.0142 14.8376 18.2151 14.3328 18.3455C14.2235 18.3731 14.1265 18.4363 14.0571 18.525C13.9876 18.6138 13.9496 18.7231 13.949 18.8358V20.3024H11.9159V18.8358C11.9153 18.7231 11.8773 18.6138 11.8079 18.525C11.7384 18.4363 11.6414 18.3731 11.5321 18.3455C11.0278 18.2154 10.5442 18.015 10.0957 17.7501C10.0166 17.7032 9.92624 17.6784 9.83422 17.6784C9.7004 17.6782 9.57196 17.7311 9.47715 17.8256L8.44025 18.8635L7.00182 17.4258L8.03973 16.3887C8.11918 16.3087 8.16979 16.2045 8.18359 16.0927C8.19739 15.9808 8.17361 15.8675 8.11597 15.7706C7.85055 15.3217 7.64967 14.8376 7.51925 14.3327C7.49164 14.2234 7.4285 14.1264 7.33976 14.0569C7.25102 13.9875 7.1417 13.9495 7.02901 13.9489H5.56236V11.9158H7.02901C7.1417 11.9152 7.25102 11.8772 7.33976 11.8077C7.4285 11.7383 7.49164 11.6413 7.51925 11.532C7.64935 11.0276 7.8498 10.5441 8.1147 10.0956C8.17246 9.99867 8.19632 9.88526 8.18252 9.77326C8.16871 9.66126 8.11803 9.55704 8.03846 9.47703L7.0008 8.44013L8.43848 7.00169L9.47613 8.03935C9.55613 8.11886 9.6603 8.16951 9.77225 8.18331C9.88419 8.19712 9.99754 8.17329 10.0945 8.11559C10.5433 7.8503 11.0273 7.6495 11.5321 7.51912C11.6414 7.49152 11.7384 7.42838 11.8079 7.33964C11.8773 7.25089 11.9153 7.14158 11.9159 7.02889V5.56224H13.949V7.02889C13.9496 7.14158 13.9876 7.25089 14.0571 7.33964C14.1265 7.42838 14.2235 7.49152 14.3328 7.51912C14.8371 7.64923 15.3207 7.84968 15.7692 8.11458C15.8661 8.17234 15.9795 8.1962 16.0915 8.18239C16.2035 8.16859 16.3077 8.11791 16.3878 8.03834L17.4247 7.00068L18.8631 8.43835L17.8254 9.47601C17.7459 9.55601 17.6953 9.66018 17.6815 9.77212C17.6677 9.88407 17.6915 9.99742 17.7492 10.0943C18.0145 10.5432 18.2153 11.0272 18.3457 11.532C18.3733 11.6413 18.4364 11.7383 18.5252 11.8077C18.6139 11.8772 18.7232 11.9152 18.8359 11.9158H20.3025V13.9489Z" fill="#101828"/>
<path d="M12.9324 10.3908C12.4298 10.3908 11.9384 10.5399 11.5205 10.8192C11.1025 11.0984 10.7768 11.4953 10.5844 11.9597C10.3921 12.4241 10.3418 12.9351 10.4398 13.4281C10.5379 13.9211 10.7799 14.3739 11.1354 14.7293C11.4908 15.0847 11.9436 15.3268 12.4366 15.4248C12.9296 15.5229 13.4406 15.4726 13.905 15.2802C14.3693 15.0879 14.7663 14.7621 15.0455 14.3442C15.3248 13.9263 15.4738 13.4349 15.4738 12.9323C15.4731 12.2585 15.2051 11.6125 14.7286 11.136C14.2522 10.6596 13.6062 10.3916 12.9324 10.3908ZM12.9324 14.9654C12.5303 14.9654 12.1372 14.8461 11.8029 14.6227C11.4685 14.3993 11.2079 14.0818 11.054 13.7103C10.9002 13.3388 10.8599 12.93 10.9383 12.5356C11.0168 12.1412 11.2104 11.779 11.4948 11.4946C11.7791 11.2103 12.1414 11.0166 12.5358 10.9382C12.9302 10.8597 13.3389 10.9 13.7105 11.0539C14.082 11.2078 14.3995 11.4684 14.6229 11.8027C14.8463 12.1371 14.9655 12.5301 14.9655 12.9323C14.9649 13.4713 14.7505 13.9881 14.3694 14.3692C13.9882 14.7504 13.4714 14.9648 12.9324 14.9654ZM12.2594 8.39991C12.2528 8.3672 12.2397 8.33612 12.221 8.30845C12.2024 8.28079 12.1784 8.25707 12.1506 8.23866C12.1227 8.22026 12.0915 8.20752 12.0587 8.20117C12.026 8.19482 11.9923 8.19499 11.9596 8.20168C10.9906 8.40208 10.1064 8.89485 9.42629 9.61351C8.74617 10.3322 8.30283 11.2421 8.15608 12.2207C8.14618 12.2873 8.16316 12.3552 8.20329 12.4093C8.24342 12.4635 8.30341 12.4995 8.37006 12.5094C8.38252 12.5112 8.39509 12.5121 8.40768 12.5122C8.46859 12.5121 8.52746 12.4901 8.57354 12.4503C8.61963 12.4105 8.64988 12.3554 8.65877 12.2951C8.79005 11.4197 9.18667 10.6056 9.79513 9.96266C10.4036 9.31971 11.1946 8.87884 12.0615 8.69954C12.1274 8.68601 12.1853 8.64686 12.2224 8.59068C12.2596 8.5345 12.2729 8.46589 12.2594 8.39991ZM8.71875 13.8914C8.70238 13.8273 8.66163 13.772 8.60517 13.7375C8.54871 13.7029 8.481 13.6918 8.41644 13.7064C8.35188 13.721 8.29556 13.7602 8.25946 13.8157C8.22337 13.8711 8.21035 13.9385 8.22317 14.0035C8.30595 14.3693 8.43142 14.7241 8.59701 15.0607C8.61173 15.0907 8.63222 15.1176 8.65731 15.1397C8.68241 15.1618 8.71161 15.1788 8.74326 15.1896C8.7749 15.2004 8.80837 15.2049 8.84175 15.2028C8.87514 15.2007 8.90778 15.1921 8.93782 15.1773C8.96785 15.1626 8.9947 15.1421 9.01682 15.117C9.03893 15.092 9.05589 15.0627 9.06672 15.0311C9.07756 14.9995 9.08205 14.966 9.07995 14.9326C9.07784 14.8992 9.06918 14.8666 9.05447 14.8365C8.90593 14.5357 8.79325 14.2185 8.71875 13.8914Z" fill="#101828"/>
<path d="M7.50917 3.64904L6.87314 3.64794C6.81143 3.40877 6.71608 3.17959 6.58992 2.96724L7.04023 2.51694C7.08148 2.47558 7.10464 2.41956 7.10464 2.36115C7.10464 2.30275 7.08148 2.24672 7.04023 2.20537L6.41622 1.58114C6.37426 1.54106 6.31846 1.5187 6.26044 1.5187C6.20241 1.5187 6.14662 1.54106 6.10466 1.58114L5.65402 2.03035C5.44136 1.90468 5.21191 1.80991 4.97255 1.74889V1.11242C4.97255 1.05392 4.94931 0.997817 4.90795 0.956451C4.86658 0.915085 4.81048 0.891846 4.75198 0.891846H3.86967C3.81117 0.891846 3.75507 0.915085 3.7137 0.956451C3.67234 0.997817 3.6491 1.05392 3.6491 1.11242L3.648 1.74845C3.40883 1.81016 3.17965 1.90552 2.9673 2.03167L2.517 1.58114C2.47504 1.54106 2.41924 1.5187 2.36121 1.5187C2.30319 1.5187 2.24739 1.54106 2.20543 1.58114L1.5812 2.20537C1.53995 2.24672 1.51679 2.30275 1.51679 2.36115C1.51679 2.41956 1.53995 2.47558 1.5812 2.51694L2.03041 2.96757C1.90474 3.18023 1.80997 3.40968 1.74895 3.64904H1.11248C1.05398 3.64904 0.997878 3.67228 0.956512 3.71364C0.915146 3.75501 0.891907 3.81111 0.891907 3.86961V4.75192C0.891907 4.81042 0.915146 4.86652 0.956512 4.90789C0.997878 4.94925 1.05398 4.97249 1.11248 4.97249L1.74851 4.97359C1.81021 5.21276 1.90557 5.44195 2.03173 5.65429L1.5812 6.10459C1.53995 6.14594 1.51679 6.20197 1.51679 6.26038C1.51679 6.31878 1.53995 6.37481 1.5812 6.41616L2.20543 7.04039C2.24739 7.08046 2.30319 7.10283 2.36121 7.10283C2.41924 7.10283 2.47504 7.08046 2.517 7.04039L2.96763 6.59118C3.18029 6.71685 3.40974 6.81162 3.6491 6.87264V7.50911C3.6491 7.56761 3.67234 7.62371 3.7137 7.66508C3.75507 7.70644 3.81117 7.72968 3.86967 7.72968H4.75198C4.81048 7.72968 4.86658 7.70644 4.90795 7.66508C4.94931 7.62371 4.97255 7.56761 4.97255 7.50911L4.97365 6.87308C5.21282 6.81137 5.442 6.71601 5.65435 6.58986L6.10466 7.04016C6.14662 7.08024 6.20241 7.10261 6.26044 7.10261C6.31846 7.10261 6.37426 7.08024 6.41622 7.04016L7.04045 6.41594C7.0817 6.37459 7.10486 6.31856 7.10486 6.26015C7.10486 6.20175 7.0817 6.14572 7.04045 6.10437L6.59124 5.65374C6.7169 5.44116 6.81167 5.21178 6.8727 4.97249H7.50917C7.56767 4.97249 7.62377 4.94925 7.66514 4.90789C7.70651 4.86652 7.72974 4.81042 7.72974 4.75192V3.86961C7.72974 3.81111 7.70651 3.75501 7.66514 3.71364C7.62377 3.67228 7.56767 3.64904 7.50917 3.64904Z" fill="#101828"/>
<path d="M4.3108 2.9729C4.0462 2.9729 3.78754 3.05136 3.56754 3.19837C3.34753 3.34537 3.17606 3.55431 3.0748 3.79877C2.97354 4.04323 2.94705 4.31222 2.99867 4.57174C3.05029 4.83125 3.17771 5.06963 3.36481 5.25673C3.55191 5.44383 3.79029 5.57125 4.0498 5.62287C4.30932 5.67449 4.57831 5.648 4.82277 5.54674C5.06723 5.44548 5.27617 5.27401 5.42317 5.054C5.57017 4.83399 5.64864 4.57534 5.64864 4.31074C5.64823 3.95605 5.50715 3.616 5.25635 3.36519C5.00554 3.11439 4.66549 2.97331 4.3108 2.9729Z" fill="white"/>
<path d="M12.8513 10.7026C12.4264 10.7026 12.011 10.8287 11.6576 11.0647C11.3043 11.3008 11.0289 11.6364 10.8663 12.029C10.7036 12.4216 10.6611 12.8537 10.744 13.2705C10.8269 13.6873 11.0315 14.0701 11.332 14.3706C11.6325 14.6711 12.0154 14.8757 12.4322 14.9586C12.849 15.0416 13.281 14.999 13.6736 14.8364C14.0662 14.6738 14.4018 14.3984 14.6379 14.045C14.874 13.6917 15 13.2762 15 12.8513C14.9993 12.2816 14.7728 11.7355 14.37 11.3327C13.9671 10.9299 13.421 10.7033 12.8513 10.7026Z" fill="#101828"/>
</svg>
