<svg width="22" height="22" viewBox="0 0 22 22" fill="none" xmlns="http://www.w3.org/2000/svg">
<path d="M20.5249 6.38172H20.3983V4.53978C20.3983 4.35149 20.2442 4.1974 20.0559 4.1974H15.6667C15.3963 1.8385 13.39 0 10.9592 0C8.52839 0 6.5187 1.8385 6.24821 4.1974H1.85909C1.67075 4.1974 1.51671 4.35149 1.51671 4.53978V6.38172H1.39C0.62309 6.38172 0 7.00481 0 7.76832V18.9534C0 19.7169 0.62309 20.34 1.39 20.34H9.07616C9.23708 21.2336 10.0176 21.9115 10.9557 21.9115C11.8938 21.9115 12.6778 21.2336 12.8388 20.34H20.5249C21.2884 20.34 21.9115 19.7169 21.9115 18.9534V7.76832C21.9115 7.00485 21.2884 6.38172 20.5249 6.38172ZM10.6134 18.1763C10.1067 17.5976 9.36375 17.2313 8.53523 17.2313H2.20142V4.88215H6.2208C6.28925 7.31981 8.20308 9.29869 10.6134 9.47328V18.1763ZM6.89872 4.74521C6.89872 2.50615 8.72012 0.68475 10.9592 0.68475C13.1948 0.68475 15.0162 2.50615 15.0162 4.74521C15.0162 6.98431 13.1948 8.80571 10.9592 8.80571C8.72008 8.80567 6.89872 6.98431 6.89872 4.74521ZM19.7135 17.2313H13.3797C12.5512 17.2313 11.8048 17.5977 11.2981 18.1763V9.47328C13.7084 9.30209 15.6256 7.31981 15.6941 4.88215H19.7135V17.2313Z" fill="#101828"/>
<path d="M4.0488 11.3977H8.76569C8.95493 11.3977 9.10807 11.2446 9.10807 11.0553C9.10807 10.8661 8.95493 10.713 8.76569 10.713H4.0488C3.85956 10.713 3.70642 10.8661 3.70642 11.0553C3.70642 11.2446 3.85956 11.3977 4.0488 11.3977ZM5.73657 12.6983C5.54733 12.6983 5.39419 12.8514 5.39419 13.0407C5.39419 13.2299 5.54733 13.383 5.73657 13.383H7.07796C7.2672 13.383 7.42034 13.2299 7.42034 13.0407C7.42034 12.8514 7.2672 12.6983 7.07796 12.6983H5.73657ZM4.0488 15.368H8.76569C8.95493 15.368 9.10807 15.2149 9.10807 15.0257C9.10807 14.8364 8.95493 14.6833 8.76569 14.6833H4.0488C3.85956 14.6833 3.70642 14.8364 3.70642 15.0257C3.70642 15.2149 3.85956 15.368 4.0488 15.368ZM13.1479 10.713C12.9587 10.713 12.8056 10.8661 12.8056 11.0553C12.8056 11.2446 12.9587 11.3977 13.1479 11.3977H17.8652C18.0544 11.3977 18.2076 11.2446 18.2076 11.0553C18.2076 10.8661 18.0544 10.713 17.8652 10.713H13.1479ZM16.2032 13.383C16.3924 13.383 16.5455 13.2299 16.5455 13.0407C16.5455 12.8514 16.3924 12.6983 16.2032 12.6983H14.8099C14.6207 12.6983 14.4676 12.8514 14.4676 13.0407C14.4676 13.2299 14.6207 13.383 14.8099 13.383H16.2032ZM17.8652 14.6833H13.1479C12.9587 14.6833 12.8056 14.8364 12.8056 15.0257C12.8056 15.2149 12.9587 15.368 13.1479 15.368H17.8652C18.0544 15.368 18.2076 15.2149 18.2076 15.0257C18.2076 14.8364 18.0544 14.6833 17.8652 14.6833ZM13.5441 4.7453C13.5441 4.8617 13.4859 4.97127 13.3866 5.03289L10.2334 7.03914C10.0074 7.18292 9.70958 7.02204 9.70958 6.75155V2.739C9.70958 2.61233 9.77803 2.49932 9.88417 2.4377C9.99374 2.37952 10.1307 2.38292 10.2334 2.44797L13.3866 4.45423C13.435 4.48584 13.4747 4.52901 13.5022 4.57983C13.5297 4.63065 13.5441 4.68752 13.5441 4.7453Z" fill="#101828"/>
</svg>
