<svg width="125" height="125" viewBox="0 0 125 125" fill="none" xmlns="http://www.w3.org/2000/svg">
<foreignObject x="-4.6" y="-8.6" width="134.2" height="134.2"><div xmlns="http://www.w3.org/1999/xhtml" style="backdrop-filter:blur(4.3px);clip-path:url(#bgblur_0_6260_6609_clip_path);height:100%;width:100%"></div></foreignObject><g filter="url(#filter0_d_6260_6609)" data-figma-bg-blur-radius="8.6">
<rect x="4" width="117" height="117" rx="12" fill="black" fill-opacity="0.64" shape-rendering="crispEdges"/>
</g>
<mask id="mask0_6260_6609" style="mask-type:alpha" maskUnits="userSpaceOnUse" x="4" y="0" width="117" height="117">
<foreignObject x="-4.6" y="-8.6" width="134.2" height="134.2"><div xmlns="http://www.w3.org/1999/xhtml" style="backdrop-filter:blur(2px);clip-path:url(#bgblur_1_6260_6609_clip_path);height:100%;width:100%"></div></foreignObject><rect data-figma-bg-blur-radius="4" x="5.25" y="1.25" width="114.5" height="114.5" rx="10.75" stroke="url(#paint0_linear_6260_6609)" stroke-width="2.5"/>
</mask>
<g mask="url(#mask0_6260_6609)">
<g filter="url(#filter1_f_6260_6609)">
<ellipse cx="116.5" cy="110.5" rx="54.5" ry="39.5" fill="white" fill-opacity="0.54"/>
</g>
<g filter="url(#filter2_f_6260_6609)">
<ellipse cx="19.5" cy="15" rx="66.5" ry="47" fill="white" fill-opacity="0.72"/>
</g>
<g filter="url(#filter3_f_6260_6609)">
<ellipse cx="-3.5" cy="95" rx="35.5" ry="30" fill="white" fill-opacity="0.06"/>
<ellipse cx="-3.5" cy="95" rx="35.5" ry="30" fill="white" fill-opacity="0.06"/>
</g>
</g>
<path d="M42.1702 83.3332C44.3538 86.8975 47.4156 89.8419 51.0625 91.8846C54.7095 93.9273 58.8196 95 62.9997 95C67.1798 95 71.2899 93.9273 74.9369 91.8846C78.5838 89.8419 81.6456 86.8975 83.8292 83.3332H88.6662C89.9038 83.3332 91.0908 82.8415 91.966 81.9663C92.8411 81.0912 93.3328 79.9042 93.3328 78.6665V29.6669C93.3328 28.4293 92.8411 27.2423 91.966 26.3671C91.0908 25.492 89.9038 25.0003 88.6662 25.0003H37.3333C36.0956 25.0003 34.9086 25.492 34.0334 26.3671C33.1583 27.2423 32.6666 28.4293 32.6666 29.6669V78.6665C32.6666 79.9042 33.1583 81.0912 34.0334 81.9663C34.9086 82.8415 36.0956 83.3332 37.3333 83.3332H42.1702ZM62.9997 92.6664C58.6156 92.6664 54.3299 91.3664 50.6847 88.9307C47.0394 86.495 44.1983 83.0331 42.5205 78.9827C40.8428 74.9323 40.4038 70.4753 41.2591 66.1755C42.1144 61.8756 44.2256 57.9259 47.3256 54.8259C50.4257 51.7258 54.3754 49.6147 58.6752 48.7594C62.9751 47.9041 67.4321 48.343 71.4825 50.0208C75.5328 51.6985 78.9948 54.5396 81.4305 58.1849C83.8661 61.8302 85.1662 66.1158 85.1662 70.4999C85.1597 76.3769 82.8222 82.0112 78.6666 86.1668C74.511 90.3225 68.8766 92.6599 62.9997 92.6664ZM37.3333 27.3336H88.6662C89.285 27.3336 89.8785 27.5794 90.3161 28.017C90.7536 28.4546 90.9995 29.0481 90.9995 29.6669V34.3336H34.9999V29.6669C34.9999 29.0481 35.2458 28.4546 35.6834 28.017C36.1209 27.5794 36.7144 27.3336 37.3333 27.3336ZM34.9999 78.6665V36.6669H90.9995V78.6665C90.9995 79.2854 90.7536 79.8789 90.3161 80.3164C89.8785 80.754 89.285 80.9998 88.6662 80.9998H85.102C86.6795 77.6817 87.49 74.051 87.4736 70.377C87.4572 66.703 86.6142 63.0797 85.0071 59.7758C83.4001 56.4718 81.0702 53.5718 78.19 51.2907C75.3099 49.0096 71.9533 47.4059 68.3691 46.5983C64.7849 45.7908 61.0649 45.8001 57.4848 46.6256C53.9047 47.4512 50.5562 49.0718 47.6875 51.3673C44.8189 53.6628 42.5035 56.5745 40.9131 59.8865C39.3227 63.1984 38.4979 66.8259 38.4999 70.4999C38.5042 74.1351 39.3234 77.7231 40.8974 80.9998H37.3333C36.7144 80.9998 36.1209 80.754 35.6834 80.3164C35.2458 79.8789 34.9999 79.2854 34.9999 78.6665Z" fill="white"/>
<path d="M48.9997 70.0788C49.0212 70.57 49.1934 71.0427 49.4929 71.4326C49.7925 71.8225 50.2048 72.1107 50.6739 72.2581L57.808 74.5832L60.0748 81.6543C60.2212 82.1244 60.509 82.5378 60.8991 82.8382C61.2891 83.1387 61.7622 83.3115 62.2541 83.3331H62.3824C62.8664 83.3346 63.3401 83.1935 63.7444 82.9276C64.1488 82.6616 64.4659 82.2825 64.6562 81.8375L73.2895 62.2552C73.4914 61.8063 73.5521 61.3067 73.4633 60.8226C73.3746 60.3385 73.1407 59.8928 72.7927 59.5448C72.4447 59.1968 71.999 58.9629 71.5149 58.8742C71.0308 58.7854 70.5312 58.8461 70.0824 59.048L50.5024 67.6731C50.0351 67.8711 49.6401 68.2083 49.3713 68.6387C49.1024 69.0692 48.9727 69.572 48.9997 70.0788ZM38.4998 32.0002H39.6664C39.9759 32.0002 40.2726 31.8773 40.4914 31.6585C40.7102 31.4397 40.8331 31.143 40.8331 30.8336C40.8331 30.5242 40.7102 30.2274 40.4914 30.0086C40.2726 29.7898 39.9759 29.6669 39.6664 29.6669H38.4998C38.1904 29.6669 37.8936 29.7898 37.6748 30.0086C37.456 30.2274 37.3331 30.5242 37.3331 30.8336C37.3331 31.143 37.456 31.4397 37.6748 31.6585C37.8936 31.8773 38.1904 32.0002 38.4998 32.0002ZM44.3331 32.0002H45.4997C45.8091 32.0002 46.1059 31.8773 46.3247 31.6585C46.5435 31.4397 46.6664 31.143 46.6664 30.8336C46.6664 30.5242 46.5435 30.2274 46.3247 30.0086C46.1059 29.7898 45.8091 29.6669 45.4997 29.6669H44.3331C44.0237 29.6669 43.7269 29.7898 43.5081 30.0086C43.2893 30.2274 43.1664 30.5242 43.1664 30.8336C43.1664 31.143 43.2893 31.4397 43.5081 31.6585C43.7269 31.8773 44.0237 32.0002 44.3331 32.0002ZM50.1664 32.0002H51.333C51.6424 32.0002 51.9392 31.8773 52.158 31.6585C52.3768 31.4397 52.4997 31.143 52.4997 30.8336C52.4997 30.5242 52.3768 30.2274 52.158 30.0086C51.9392 29.7898 51.6424 29.6669 51.333 29.6669H50.1664C49.8569 29.6669 49.5602 29.7898 49.3414 30.0086C49.1226 30.2274 48.9997 30.5242 48.9997 30.8336C48.9997 31.143 49.1226 31.4397 49.3414 31.6585C49.5602 31.8773 49.8569 32.0002 50.1664 32.0002ZM75.8328 32.0002H87.4994C87.8088 32.0002 88.1055 31.8773 88.3243 31.6585C88.5431 31.4397 88.666 31.143 88.666 30.8336C88.666 30.5242 88.5431 30.2274 88.3243 30.0086C88.1055 29.7898 87.8088 29.6669 87.4994 29.6669H75.8328C75.5234 29.6669 75.2266 29.7898 75.0079 30.0086C74.7891 30.2274 74.6661 30.5242 74.6661 30.8336C74.6661 31.143 74.7891 31.4397 75.0079 31.6585C75.2266 31.8773 75.5234 32.0002 75.8328 32.0002Z" fill="white"/>
<path d="M62.9997 50.6668C62.6903 50.6668 62.3935 50.7897 62.1748 51.0085C61.956 51.2273 61.8331 51.524 61.8331 51.8335C61.8331 52.1429 61.956 52.4396 62.1748 52.6584C62.3935 52.8772 62.6903 53.0001 62.9997 53.0001C67.3984 53.0023 71.6348 54.6617 74.8648 57.6476C78.0947 60.6335 80.0812 64.7267 80.4282 69.1117C80.7753 73.4966 79.4575 77.8514 76.7375 81.3082C74.0175 84.7651 70.0949 87.0702 65.7513 87.7643C61.4077 88.4585 56.9621 87.4906 53.3002 85.0536C49.6383 82.6166 47.029 78.8894 45.9922 74.6147C44.9554 70.3399 45.5673 65.8315 47.7058 61.9877C49.8444 58.1438 53.3527 55.2469 57.5316 53.8739C57.8255 53.7771 58.069 53.5675 58.2083 53.2911C58.3477 53.0148 58.3716 52.6944 58.2747 52.4005C58.1779 52.1065 57.9682 51.8631 57.6919 51.7237C57.4156 51.5843 57.0952 51.5605 56.8013 51.6573C52.0628 53.2138 48.0847 56.4984 45.6596 60.8568C43.2346 65.2151 42.5407 70.3271 43.7161 75.1742C44.8916 80.0213 47.8501 84.2475 52.0022 87.0109C56.1543 89.7742 61.1951 90.8717 66.1202 90.0847C71.0453 89.2977 75.493 86.6839 78.5772 82.7643C81.6614 78.8446 83.1555 73.9068 82.7619 68.9348C82.3683 63.9628 80.1159 59.3216 76.4534 55.936C72.7909 52.5505 67.9873 50.6691 62.9997 50.6668Z" fill="white"/>
<defs>
<filter id="filter0_d_6260_6609" x="-4.6" y="-8.6" width="134.2" height="134.2" filterUnits="userSpaceOnUse" color-interpolation-filters="sRGB">
<feFlood flood-opacity="0" result="BackgroundImageFix"/>
<feColorMatrix in="SourceAlpha" type="matrix" values="0 0 0 0 0 0 0 0 0 0 0 0 0 0 0 0 0 0 127 0" result="hardAlpha"/>
<feOffset dy="4"/>
<feGaussianBlur stdDeviation="2"/>
<feComposite in2="hardAlpha" operator="out"/>
<feColorMatrix type="matrix" values="0 0 0 0 0.170874 0 0 0 0 0.103874 0 0 0 0 0.201923 0 0 0 0.1 0"/>
<feBlend mode="normal" in2="BackgroundImageFix" result="effect1_dropShadow_6260_6609"/>
<feBlend mode="normal" in="SourceGraphic" in2="effect1_dropShadow_6260_6609" result="shape"/>
</filter>
<clipPath id="bgblur_0_6260_6609_clip_path" transform="translate(4.6 8.6)"><rect x="4" width="117" height="117" rx="12"/>
</clipPath><clipPath id="bgblur_1_6260_6609_clip_path" transform="translate(4.6 8.6)"><rect x="5.25" y="1.25" width="114.5" height="114.5" rx="10.75"/>
</clipPath><filter id="filter1_f_6260_6609" x="31.2" y="40.2" width="170.6" height="140.6" filterUnits="userSpaceOnUse" color-interpolation-filters="sRGB">
<feFlood flood-opacity="0" result="BackgroundImageFix"/>
<feBlend mode="normal" in="SourceGraphic" in2="BackgroundImageFix" result="shape"/>
<feGaussianBlur stdDeviation="15.4" result="effect1_foregroundBlur_6260_6609"/>
</filter>
<filter id="filter2_f_6260_6609" x="-77.8" y="-62.8" width="194.6" height="155.6" filterUnits="userSpaceOnUse" color-interpolation-filters="sRGB">
<feFlood flood-opacity="0" result="BackgroundImageFix"/>
<feBlend mode="normal" in="SourceGraphic" in2="BackgroundImageFix" result="shape"/>
<feGaussianBlur stdDeviation="15.4" result="effect1_foregroundBlur_6260_6609"/>
</filter>
<filter id="filter3_f_6260_6609" x="-69.8" y="34.2" width="132.6" height="121.6" filterUnits="userSpaceOnUse" color-interpolation-filters="sRGB">
<feFlood flood-opacity="0" result="BackgroundImageFix"/>
<feBlend mode="normal" in="SourceGraphic" in2="BackgroundImageFix" result="shape"/>
<feGaussianBlur stdDeviation="15.4" result="effect1_foregroundBlur_6260_6609"/>
</filter>
<linearGradient id="paint0_linear_6260_6609" x1="-1.16176" y1="-1.29551e-06" x2="121" y2="117" gradientUnits="userSpaceOnUse">
<stop stop-color="#E3E0FF"/>
<stop offset="0.5" stop-color="white" stop-opacity="0"/>
<stop offset="1" stop-color="#E3E0FF"/>
</linearGradient>
</defs>
</svg>
