<svg width="125" height="125" viewBox="0 0 125 125" fill="none" xmlns="http://www.w3.org/2000/svg">
<foreignObject x="-4.6" y="-8.6" width="134.2" height="134.2"><div xmlns="http://www.w3.org/1999/xhtml" style="backdrop-filter:blur(4.3px);clip-path:url(#bgblur_0_6717_17595_clip_path);height:100%;width:100%"></div></foreignObject><g filter="url(#filter0_d_6717_17595)" data-figma-bg-blur-radius="8.6">
<rect x="4" width="117" height="117" rx="12" fill="black" fill-opacity="0.64" shape-rendering="crispEdges"/>
</g>
<mask id="mask0_6717_17595" style="mask-type:alpha" maskUnits="userSpaceOnUse" x="4" y="0" width="117" height="117">
<foreignObject x="-4.6" y="-8.6" width="134.2" height="134.2"><div xmlns="http://www.w3.org/1999/xhtml" style="backdrop-filter:blur(2px);clip-path:url(#bgblur_1_6717_17595_clip_path);height:100%;width:100%"></div></foreignObject><rect data-figma-bg-blur-radius="4" x="5.25" y="1.25" width="114.5" height="114.5" rx="10.75" stroke="url(#paint0_linear_6717_17595)" stroke-width="2.5"/>
</mask>
<g mask="url(#mask0_6717_17595)">
<g filter="url(#filter1_f_6717_17595)">
<ellipse cx="116.5" cy="110.5" rx="54.5" ry="39.5" fill="white" fill-opacity="0.54"/>
</g>
<g filter="url(#filter2_f_6717_17595)">
<ellipse cx="19.5" cy="15" rx="66.5" ry="47" fill="white" fill-opacity="0.72"/>
</g>
<g filter="url(#filter3_f_6717_17595)">
<ellipse cx="-3.5" cy="95" rx="35.5" ry="30" fill="white" fill-opacity="0.06"/>
<ellipse cx="-3.5" cy="95" rx="35.5" ry="30" fill="white" fill-opacity="0.06"/>
</g>
</g>
<path d="M71.3028 64.1286L64.672 62.0537C64.6541 62.0486 64.6374 62.0421 64.6194 62.037L61.5115 61.0644V58.0002C62.9363 56.5176 64.0656 54.5532 64.7478 52.2496C65.9864 51.832 67.0129 50.7618 67.627 49.2214C68.2013 47.7811 68.3786 45.8373 67.5281 44.6527C69.7662 39.3736 69.6428 35.1338 67.1594 32.0439C63.1072 27.0037 53.4842 26.396 45.746 28.0316C45.3683 28.1112 45.0676 28.3952 44.9674 28.7677C44.8672 29.1403 44.9829 29.5373 45.2681 29.7968C45.7383 30.2234 46.3113 31.0315 46.6441 31.7356C43.4912 32.4396 42.0227 34.1253 41.3405 35.4897C40.1251 37.9231 40.445 41.2301 42.2052 44.654C41.3534 45.8411 41.5307 47.7837 42.105 49.2227C42.7191 50.7631 43.7456 51.832 44.9841 52.2509C45.6612 54.5365 46.779 56.4881 48.1884 57.9668V61.067L45.0792 62.0396C45.0638 62.0434 45.0484 62.0498 45.0317 62.0537L38.3984 64.1299C35.7941 64.9419 34.1111 67.2313 34.1111 69.9602V87.2404C34.1111 88.1385 34.8434 88.8683 35.7427 88.8683H73.9584C74.8577 88.8683 75.5901 88.1385 75.5901 87.2404V69.9602C75.5888 67.2313 73.907 64.9419 71.3028 64.1286ZM62.7539 63.6057L59.8516 68.0677L56.6627 66.2729L60.7085 62.9659L62.7539 63.6057ZM53.6268 74.0818H56.0692L57.6276 86.8139H52.071L53.6268 74.0818ZM56.2979 72.0287H53.3981L52.1686 69.1187L54.8474 67.6104L57.5287 69.1187L56.2979 72.0287ZM50.2414 59.655C51.6496 60.5364 53.2234 61.0233 54.8666 61.0233C56.497 61.0233 58.0593 60.5441 59.4597 59.6756V61.3355L54.8499 65.105L50.2427 61.3329L50.2414 59.655ZM45.9503 50.3751C45.173 50.271 44.4497 49.5554 44.0128 48.4608C43.5272 47.2415 43.6261 46.1482 43.8844 45.8296C44.1028 45.5598 44.3764 45.4274 44.7208 45.4274H45.5661C46.1212 45.4274 46.5747 44.9867 46.5927 44.433C46.6531 42.5238 46.9242 40.986 47.4368 39.6909C52.3729 42.5161 57.3642 42.5161 62.3003 39.6909C62.8117 40.9834 63.0828 42.52 63.1432 44.433C63.1517 44.6996 63.2636 44.9524 63.4552 45.138C63.6467 45.3236 63.903 45.4274 64.1697 45.4274H65.0151C65.2618 45.4274 65.4712 45.4955 65.6498 45.6317C65.6652 45.6446 65.6806 45.6574 65.6973 45.6702C65.7513 45.7165 65.8026 45.7692 65.8515 45.8296C66.1097 46.1495 66.2086 47.2428 65.723 48.4621C65.2874 49.5567 64.5628 50.2723 63.7855 50.3764C63.5828 50.4037 63.3928 50.4909 63.2399 50.6269C63.087 50.7628 62.9781 50.9413 62.9273 51.1395C62.3337 53.4637 61.2365 55.4076 59.84 56.7784C59.8015 56.8105 59.7655 56.8452 59.7308 56.8825C58.333 58.2097 56.6473 58.969 54.8692 58.969C53.0821 58.969 51.3887 58.2019 49.9871 56.8645C49.9498 56.8221 49.91 56.7823 49.8663 56.7463C48.4852 55.378 47.3995 53.4457 46.8098 51.1395C46.7584 50.9413 46.6492 50.7628 46.4962 50.6267C46.3432 50.4906 46.1532 50.403 45.9503 50.3751ZM48.9939 62.9646L53.0345 66.2729L49.8483 68.0677L46.946 63.6057L48.9939 62.9646ZM96.9122 33.5805H95.4052C93.5988 29.8264 89.7573 27.2286 85.3197 27.2286C80.8821 27.2286 77.0406 29.8264 75.2342 33.5805H73.7271C72.0839 33.5805 70.7477 34.9167 70.7477 36.5599V50.6834C70.7477 52.3241 72.0839 53.659 73.7271 53.659H75.0389V57.6906C75.0389 58.3523 75.4128 58.933 76.0128 59.2054C76.2376 59.3069 76.4727 59.357 76.7052 59.357C77.0997 59.357 77.4864 59.2144 77.7986 58.9368L83.7664 53.659H96.9109C98.5541 53.659 99.8903 52.3241 99.8903 50.6834V36.5599C99.8916 34.9167 98.5541 33.5805 96.9122 33.5805ZM97.8372 50.6834C97.8372 51.1909 97.4223 51.6046 96.9122 51.6046H83.6161C83.2075 51.6046 82.8285 51.7485 82.5163 52.0222L77.0932 56.8182V53.2684C77.0932 52.3511 76.3481 51.6046 75.432 51.6046H73.7271C73.2171 51.6046 72.8021 51.1909 72.8021 50.6834V36.5599C72.8021 36.0588 73.2261 35.6349 73.7271 35.6349H74.4852C74.2522 36.5428 74.1348 37.4765 74.1357 38.4138C74.1357 44.5833 79.1527 49.6017 85.3197 49.6017C91.4866 49.6017 96.5036 44.5833 96.5036 38.4138C96.5036 37.4554 96.3816 36.5239 96.1542 35.6349H96.9122C97.4133 35.6349 97.8372 36.0588 97.8372 36.5599V50.6834ZM85.3197 46.549C89.8061 46.549 93.4562 42.899 93.4562 38.4125C93.4562 33.9287 89.8061 30.2799 85.3197 30.2799C80.8332 30.2799 77.1832 33.9287 77.1832 38.4125C77.1845 42.9003 80.8332 46.549 85.3197 46.549ZM85.3197 32.3356C88.6729 32.3356 91.4018 35.0619 91.4018 38.4138C91.4018 41.7671 88.6729 44.496 85.3197 44.496C81.9664 44.496 79.2375 41.7671 79.2375 38.4138C79.2375 35.0619 81.9664 32.3356 85.3197 32.3356ZM82.2388 36.7565C82.2388 35.5873 83.1021 34.5903 84.3034 34.2216V33.6756C84.3034 33.1077 84.7634 32.649 85.3299 32.649C85.8965 32.649 86.3565 33.109 86.3565 33.6756V34.2203C87.4049 34.5364 88.2001 35.3265 88.3826 36.3274C88.4841 36.885 88.1153 37.4207 87.5565 37.5222C86.9989 37.6237 86.4631 37.255 86.3616 36.6961C86.3115 36.4186 85.8837 36.1218 85.3287 36.1218C84.7441 36.1218 84.2906 36.4623 84.2906 36.7552C84.2906 37.0468 84.7441 37.3847 85.3287 37.3847L85.3454 37.386C87.0323 37.404 88.398 38.6027 88.398 40.0725C88.398 41.2416 87.5346 42.2386 86.3334 42.6073V43.1534C86.3334 43.7212 85.8734 44.1799 85.3068 44.1799C84.7402 44.1799 84.2803 43.72 84.2803 43.1534V42.6086C83.2319 42.2926 82.4366 41.5024 82.2542 40.5016C82.1527 39.944 82.5214 39.4083 83.0803 39.3068C83.6379 39.2053 84.1736 39.574 84.2751 40.1329C84.3253 40.4104 84.7531 40.7072 85.3081 40.7072C85.8927 40.7072 86.3462 40.3667 86.3462 40.0738C86.3462 39.7808 85.8927 39.4404 85.3081 39.4404L85.2914 39.4391C83.6045 39.4211 82.2388 38.225 82.2388 36.7565Z" fill="white"/>
<path d="M71.3028 64.1286L64.672 62.0537C64.6541 62.0486 64.6374 62.0421 64.6194 62.037L61.5115 61.0644V58.0002C62.9363 56.5176 64.0656 54.5532 64.7478 52.2496C65.9864 51.832 67.0129 50.7618 67.627 49.2214C68.2013 47.7811 68.3786 45.8373 67.5281 44.6527C69.7662 39.3736 69.6428 35.1338 67.1594 32.0439C63.1072 27.0037 53.4842 26.396 45.746 28.0316C45.3683 28.1112 45.0676 28.3952 44.9674 28.7677C44.8672 29.1403 44.9829 29.5373 45.2681 29.7968C45.7383 30.2234 46.3113 31.0315 46.6441 31.7356C43.4912 32.4396 42.0227 34.1253 41.3405 35.4897C40.1251 37.9231 40.445 41.2301 42.2052 44.654C41.3534 45.8411 41.5307 47.7837 42.105 49.2227C42.7191 50.7631 43.7456 51.832 44.9841 52.2509C45.6612 54.5365 46.779 56.4881 48.1884 57.9668V61.067L45.0792 62.0396C45.0638 62.0434 45.0484 62.0498 45.0317 62.0537L38.3984 64.1299C35.7941 64.9419 34.1111 67.2313 34.1111 69.9602V87.2404C34.1111 88.1385 34.8434 88.8683 35.7427 88.8683H73.9584C74.8577 88.8683 75.5901 88.1385 75.5901 87.2404V69.9602C75.5888 67.2313 73.907 64.9419 71.3028 64.1286ZM62.7539 63.6057L59.8516 68.0677L56.6627 66.2729L60.7085 62.9659L62.7539 63.6057ZM53.6268 74.0818H56.0692L57.6276 86.8139H52.071L53.6268 74.0818ZM56.2979 72.0287H53.3981L52.1686 69.1187L54.8474 67.6104L57.5287 69.1187L56.2979 72.0287ZM50.2414 59.655C51.6496 60.5364 53.2234 61.0233 54.8666 61.0233C56.497 61.0233 58.0593 60.5441 59.4597 59.6756V61.3355L54.8499 65.105L50.2427 61.3329L50.2414 59.655ZM45.9503 50.3751C45.173 50.271 44.4497 49.5554 44.0128 48.4608C43.5272 47.2415 43.6261 46.1482 43.8844 45.8296C44.1028 45.5598 44.3764 45.4274 44.7208 45.4274H45.5661C46.1212 45.4274 46.5747 44.9867 46.5927 44.433C46.6531 42.5238 46.9242 40.986 47.4368 39.6909C52.3729 42.5161 57.3642 42.5161 62.3003 39.6909C62.8117 40.9834 63.0828 42.52 63.1432 44.433C63.1517 44.6996 63.2636 44.9524 63.4552 45.138C63.6467 45.3236 63.903 45.4274 64.1697 45.4274H65.0151C65.2618 45.4274 65.4712 45.4955 65.6498 45.6317C65.6652 45.6446 65.6806 45.6574 65.6973 45.6702C65.7513 45.7165 65.8026 45.7692 65.8515 45.8296C66.1097 46.1495 66.2086 47.2428 65.723 48.4621C65.2874 49.5567 64.5628 50.2723 63.7855 50.3764C63.5828 50.4037 63.3928 50.4909 63.2399 50.6269C63.087 50.7628 62.9781 50.9413 62.9273 51.1395C62.3337 53.4637 61.2365 55.4076 59.84 56.7784C59.8015 56.8105 59.7655 56.8452 59.7308 56.8825C58.333 58.2097 56.6473 58.969 54.8692 58.969C53.0821 58.969 51.3887 58.2019 49.9871 56.8645C49.9498 56.8221 49.91 56.7823 49.8663 56.7463C48.4852 55.378 47.3995 53.4457 46.8098 51.1395C46.7584 50.9413 46.6492 50.7628 46.4962 50.6267C46.3432 50.4906 46.1532 50.403 45.9503 50.3751ZM48.9939 62.9646L53.0345 66.2729L49.8483 68.0677L46.946 63.6057L48.9939 62.9646ZM96.9122 33.5805H95.4052C93.5988 29.8264 89.7573 27.2286 85.3197 27.2286C80.8821 27.2286 77.0406 29.8264 75.2342 33.5805H73.7271C72.0839 33.5805 70.7477 34.9167 70.7477 36.5599V50.6834C70.7477 52.3241 72.0839 53.659 73.7271 53.659H75.0389V57.6906C75.0389 58.3523 75.4128 58.933 76.0128 59.2054C76.2376 59.3069 76.4727 59.357 76.7052 59.357C77.0997 59.357 77.4864 59.2144 77.7986 58.9368L83.7664 53.659H96.9109C98.5541 53.659 99.8903 52.3241 99.8903 50.6834V36.5599C99.8916 34.9167 98.5541 33.5805 96.9122 33.5805ZM97.8372 50.6834C97.8372 51.1909 97.4223 51.6046 96.9122 51.6046H83.6161C83.2075 51.6046 82.8285 51.7485 82.5163 52.0222L77.0932 56.8182V53.2684C77.0932 52.3511 76.3481 51.6046 75.432 51.6046H73.7271C73.2171 51.6046 72.8021 51.1909 72.8021 50.6834V36.5599C72.8021 36.0588 73.2261 35.6349 73.7271 35.6349H74.4852C74.2522 36.5428 74.1348 37.4765 74.1357 38.4138C74.1357 44.5833 79.1527 49.6017 85.3197 49.6017C91.4866 49.6017 96.5036 44.5833 96.5036 38.4138C96.5036 37.4554 96.3816 36.5239 96.1542 35.6349H96.9122C97.4133 35.6349 97.8372 36.0588 97.8372 36.5599V50.6834ZM85.3197 46.549C89.8061 46.549 93.4562 42.899 93.4562 38.4125C93.4562 33.9287 89.8061 30.2799 85.3197 30.2799C80.8332 30.2799 77.1832 33.9287 77.1832 38.4125C77.1845 42.9003 80.8332 46.549 85.3197 46.549ZM85.3197 32.3356C88.6729 32.3356 91.4018 35.0619 91.4018 38.4138C91.4018 41.7671 88.6729 44.496 85.3197 44.496C81.9664 44.496 79.2375 41.7671 79.2375 38.4138C79.2375 35.0619 81.9664 32.3356 85.3197 32.3356ZM82.2388 36.7565C82.2388 35.5873 83.1021 34.5903 84.3034 34.2216V33.6756C84.3034 33.1077 84.7634 32.649 85.3299 32.649C85.8965 32.649 86.3565 33.109 86.3565 33.6756V34.2203C87.4049 34.5364 88.2001 35.3265 88.3826 36.3274C88.4841 36.885 88.1153 37.4207 87.5565 37.5222C86.9989 37.6237 86.4631 37.255 86.3616 36.6961C86.3115 36.4186 85.8837 36.1218 85.3287 36.1218C84.7441 36.1218 84.2906 36.4623 84.2906 36.7552C84.2906 37.0468 84.7441 37.3847 85.3287 37.3847L85.3454 37.386C87.0323 37.404 88.398 38.6027 88.398 40.0725C88.398 41.2416 87.5346 42.2386 86.3334 42.6073V43.1534C86.3334 43.7212 85.8734 44.1799 85.3068 44.1799C84.7402 44.1799 84.2803 43.72 84.2803 43.1534V42.6086C83.2319 42.2926 82.4366 41.5024 82.2542 40.5016C82.1527 39.944 82.5214 39.4083 83.0803 39.3068C83.6379 39.2053 84.1736 39.574 84.2751 40.1329C84.3253 40.4104 84.7531 40.7072 85.3081 40.7072C85.8927 40.7072 86.3462 40.3667 86.3462 40.0738C86.3462 39.7808 85.8927 39.4404 85.3081 39.4404L85.2914 39.4391C83.6045 39.4211 82.2388 38.225 82.2388 36.7565Z" fill="white" fill-opacity="0.1"/>
<path d="M71.3028 64.1286L64.672 62.0537C64.6541 62.0486 64.6374 62.0421 64.6194 62.037L61.5115 61.0644V58.0002C62.9363 56.5176 64.0656 54.5532 64.7478 52.2496C65.9864 51.832 67.0129 50.7618 67.627 49.2214C68.2013 47.7811 68.3786 45.8373 67.5281 44.6527C69.7662 39.3736 69.6428 35.1338 67.1594 32.0439C63.1072 27.0037 53.4842 26.396 45.746 28.0316C45.3683 28.1112 45.0676 28.3952 44.9674 28.7677C44.8672 29.1403 44.9829 29.5373 45.2681 29.7968C45.7383 30.2234 46.3113 31.0315 46.6441 31.7356C43.4912 32.4396 42.0227 34.1253 41.3405 35.4897C40.1251 37.9231 40.445 41.2301 42.2052 44.654C41.3534 45.8411 41.5307 47.7837 42.105 49.2227C42.7191 50.7631 43.7456 51.832 44.9841 52.2509C45.6612 54.5365 46.779 56.4881 48.1884 57.9668V61.067L45.0792 62.0396C45.0638 62.0434 45.0484 62.0498 45.0317 62.0537L38.3984 64.1299C35.7941 64.9419 34.1111 67.2313 34.1111 69.9602V87.2404C34.1111 88.1385 34.8434 88.8683 35.7427 88.8683H73.9584C74.8577 88.8683 75.5901 88.1385 75.5901 87.2404V69.9602C75.5888 67.2313 73.907 64.9419 71.3028 64.1286ZM62.7539 63.6057L59.8516 68.0677L56.6627 66.2729L60.7085 62.9659L62.7539 63.6057ZM53.6268 74.0818H56.0692L57.6276 86.8139H52.071L53.6268 74.0818ZM56.2979 72.0287H53.3981L52.1686 69.1187L54.8474 67.6104L57.5287 69.1187L56.2979 72.0287ZM50.2414 59.655C51.6496 60.5364 53.2234 61.0233 54.8666 61.0233C56.497 61.0233 58.0593 60.5441 59.4597 59.6756V61.3355L54.8499 65.105L50.2427 61.3329L50.2414 59.655ZM45.9503 50.3751C45.173 50.271 44.4497 49.5554 44.0128 48.4608C43.5272 47.2415 43.6261 46.1482 43.8844 45.8296C44.1028 45.5598 44.3764 45.4274 44.7208 45.4274H45.5661C46.1212 45.4274 46.5747 44.9867 46.5927 44.433C46.6531 42.5238 46.9242 40.986 47.4368 39.6909C52.3729 42.5161 57.3642 42.5161 62.3003 39.6909C62.8117 40.9834 63.0828 42.52 63.1432 44.433C63.1517 44.6996 63.2636 44.9524 63.4552 45.138C63.6467 45.3236 63.903 45.4274 64.1697 45.4274H65.0151C65.2618 45.4274 65.4712 45.4955 65.6498 45.6317C65.6652 45.6446 65.6806 45.6574 65.6973 45.6702C65.7513 45.7165 65.8026 45.7692 65.8515 45.8296C66.1097 46.1495 66.2086 47.2428 65.723 48.4621C65.2874 49.5567 64.5628 50.2723 63.7855 50.3764C63.5828 50.4037 63.3928 50.4909 63.2399 50.6269C63.087 50.7628 62.9781 50.9413 62.9273 51.1395C62.3337 53.4637 61.2365 55.4076 59.84 56.7784C59.8015 56.8105 59.7655 56.8452 59.7308 56.8825C58.333 58.2097 56.6473 58.969 54.8692 58.969C53.0821 58.969 51.3887 58.2019 49.9871 56.8645C49.9498 56.8221 49.91 56.7823 49.8663 56.7463C48.4852 55.378 47.3995 53.4457 46.8098 51.1395C46.7584 50.9413 46.6492 50.7628 46.4962 50.6267C46.3432 50.4906 46.1532 50.403 45.9503 50.3751ZM48.9939 62.9646L53.0345 66.2729L49.8483 68.0677L46.946 63.6057L48.9939 62.9646ZM96.9122 33.5805H95.4052C93.5988 29.8264 89.7573 27.2286 85.3197 27.2286C80.8821 27.2286 77.0406 29.8264 75.2342 33.5805H73.7271C72.0839 33.5805 70.7477 34.9167 70.7477 36.5599V50.6834C70.7477 52.3241 72.0839 53.659 73.7271 53.659H75.0389V57.6906C75.0389 58.3523 75.4128 58.933 76.0128 59.2054C76.2376 59.3069 76.4727 59.357 76.7052 59.357C77.0997 59.357 77.4864 59.2144 77.7986 58.9368L83.7664 53.659H96.9109C98.5541 53.659 99.8903 52.3241 99.8903 50.6834V36.5599C99.8916 34.9167 98.5541 33.5805 96.9122 33.5805ZM97.8372 50.6834C97.8372 51.1909 97.4223 51.6046 96.9122 51.6046H83.6161C83.2075 51.6046 82.8285 51.7485 82.5163 52.0222L77.0932 56.8182V53.2684C77.0932 52.3511 76.3481 51.6046 75.432 51.6046H73.7271C73.2171 51.6046 72.8021 51.1909 72.8021 50.6834V36.5599C72.8021 36.0588 73.2261 35.6349 73.7271 35.6349H74.4852C74.2522 36.5428 74.1348 37.4765 74.1357 38.4138C74.1357 44.5833 79.1527 49.6017 85.3197 49.6017C91.4866 49.6017 96.5036 44.5833 96.5036 38.4138C96.5036 37.4554 96.3816 36.5239 96.1542 35.6349H96.9122C97.4133 35.6349 97.8372 36.0588 97.8372 36.5599V50.6834ZM85.3197 46.549C89.8061 46.549 93.4562 42.899 93.4562 38.4125C93.4562 33.9287 89.8061 30.2799 85.3197 30.2799C80.8332 30.2799 77.1832 33.9287 77.1832 38.4125C77.1845 42.9003 80.8332 46.549 85.3197 46.549ZM85.3197 32.3356C88.6729 32.3356 91.4018 35.0619 91.4018 38.4138C91.4018 41.7671 88.6729 44.496 85.3197 44.496C81.9664 44.496 79.2375 41.7671 79.2375 38.4138C79.2375 35.0619 81.9664 32.3356 85.3197 32.3356ZM82.2388 36.7565C82.2388 35.5873 83.1021 34.5903 84.3034 34.2216V33.6756C84.3034 33.1077 84.7634 32.649 85.3299 32.649C85.8965 32.649 86.3565 33.109 86.3565 33.6756V34.2203C87.4049 34.5364 88.2001 35.3265 88.3826 36.3274C88.4841 36.885 88.1153 37.4207 87.5565 37.5222C86.9989 37.6237 86.4631 37.255 86.3616 36.6961C86.3115 36.4186 85.8837 36.1218 85.3287 36.1218C84.7441 36.1218 84.2906 36.4623 84.2906 36.7552C84.2906 37.0468 84.7441 37.3847 85.3287 37.3847L85.3454 37.386C87.0323 37.404 88.398 38.6027 88.398 40.0725C88.398 41.2416 87.5346 42.2386 86.3334 42.6073V43.1534C86.3334 43.7212 85.8734 44.1799 85.3068 44.1799C84.7402 44.1799 84.2803 43.72 84.2803 43.1534V42.6086C83.2319 42.2926 82.4366 41.5024 82.2542 40.5016C82.1527 39.944 82.5214 39.4083 83.0803 39.3068C83.6379 39.2053 84.1736 39.574 84.2751 40.1329C84.3253 40.4104 84.7531 40.7072 85.3081 40.7072C85.8927 40.7072 86.3462 40.3667 86.3462 40.0738C86.3462 39.7808 85.8927 39.4404 85.3081 39.4404L85.2914 39.4391C83.6045 39.4211 82.2388 38.225 82.2388 36.7565Z" fill="white"/>
<path d="M71.3028 64.1286L64.672 62.0537C64.6541 62.0486 64.6374 62.0421 64.6194 62.037L61.5115 61.0644V58.0002C62.9363 56.5176 64.0656 54.5532 64.7478 52.2496C65.9864 51.832 67.0129 50.7618 67.627 49.2214C68.2013 47.7811 68.3786 45.8373 67.5281 44.6527C69.7662 39.3736 69.6428 35.1338 67.1594 32.0439C63.1072 27.0037 53.4842 26.396 45.746 28.0316C45.3683 28.1112 45.0676 28.3952 44.9674 28.7677C44.8672 29.1403 44.9829 29.5373 45.2681 29.7968C45.7383 30.2234 46.3113 31.0315 46.6441 31.7356C43.4912 32.4396 42.0227 34.1253 41.3405 35.4897C40.1251 37.9231 40.445 41.2301 42.2052 44.654C41.3534 45.8411 41.5307 47.7837 42.105 49.2227C42.7191 50.7631 43.7456 51.832 44.9841 52.2509C45.6612 54.5365 46.779 56.4881 48.1884 57.9668V61.067L45.0792 62.0396C45.0638 62.0434 45.0484 62.0498 45.0317 62.0537L38.3984 64.1299C35.7941 64.9419 34.1111 67.2313 34.1111 69.9602V87.2404C34.1111 88.1385 34.8434 88.8683 35.7427 88.8683H73.9584C74.8577 88.8683 75.5901 88.1385 75.5901 87.2404V69.9602C75.5888 67.2313 73.907 64.9419 71.3028 64.1286ZM62.7539 63.6057L59.8516 68.0677L56.6627 66.2729L60.7085 62.9659L62.7539 63.6057ZM53.6268 74.0818H56.0692L57.6276 86.8139H52.071L53.6268 74.0818ZM56.2979 72.0287H53.3981L52.1686 69.1187L54.8474 67.6104L57.5287 69.1187L56.2979 72.0287ZM50.2414 59.655C51.6496 60.5364 53.2234 61.0233 54.8666 61.0233C56.497 61.0233 58.0593 60.5441 59.4597 59.6756V61.3355L54.8499 65.105L50.2427 61.3329L50.2414 59.655ZM45.9503 50.3751C45.173 50.271 44.4497 49.5554 44.0128 48.4608C43.5272 47.2415 43.6261 46.1482 43.8844 45.8296C44.1028 45.5598 44.3764 45.4274 44.7208 45.4274H45.5661C46.1212 45.4274 46.5747 44.9867 46.5927 44.433C46.6531 42.5238 46.9242 40.986 47.4368 39.6909C52.3729 42.5161 57.3642 42.5161 62.3003 39.6909C62.8117 40.9834 63.0828 42.52 63.1432 44.433C63.1517 44.6996 63.2636 44.9524 63.4552 45.138C63.6467 45.3236 63.903 45.4274 64.1697 45.4274H65.0151C65.2618 45.4274 65.4712 45.4955 65.6498 45.6317C65.6652 45.6446 65.6806 45.6574 65.6973 45.6702C65.7513 45.7165 65.8026 45.7692 65.8515 45.8296C66.1097 46.1495 66.2086 47.2428 65.723 48.4621C65.2874 49.5567 64.5628 50.2723 63.7855 50.3764C63.5828 50.4037 63.3928 50.4909 63.2399 50.6269C63.087 50.7628 62.9781 50.9413 62.9273 51.1395C62.3337 53.4637 61.2365 55.4076 59.84 56.7784C59.8015 56.8105 59.7655 56.8452 59.7308 56.8825C58.333 58.2097 56.6473 58.969 54.8692 58.969C53.0821 58.969 51.3887 58.2019 49.9871 56.8645C49.9498 56.8221 49.91 56.7823 49.8663 56.7463C48.4852 55.378 47.3995 53.4457 46.8098 51.1395C46.7584 50.9413 46.6492 50.7628 46.4962 50.6267C46.3432 50.4906 46.1532 50.403 45.9503 50.3751ZM48.9939 62.9646L53.0345 66.2729L49.8483 68.0677L46.946 63.6057L48.9939 62.9646ZM96.9122 33.5805H95.4052C93.5988 29.8264 89.7573 27.2286 85.3197 27.2286C80.8821 27.2286 77.0406 29.8264 75.2342 33.5805H73.7271C72.0839 33.5805 70.7477 34.9167 70.7477 36.5599V50.6834C70.7477 52.3241 72.0839 53.659 73.7271 53.659H75.0389V57.6906C75.0389 58.3523 75.4128 58.933 76.0128 59.2054C76.2376 59.3069 76.4727 59.357 76.7052 59.357C77.0997 59.357 77.4864 59.2144 77.7986 58.9368L83.7664 53.659H96.9109C98.5541 53.659 99.8903 52.3241 99.8903 50.6834V36.5599C99.8916 34.9167 98.5541 33.5805 96.9122 33.5805ZM97.8372 50.6834C97.8372 51.1909 97.4223 51.6046 96.9122 51.6046H83.6161C83.2075 51.6046 82.8285 51.7485 82.5163 52.0222L77.0932 56.8182V53.2684C77.0932 52.3511 76.3481 51.6046 75.432 51.6046H73.7271C73.2171 51.6046 72.8021 51.1909 72.8021 50.6834V36.5599C72.8021 36.0588 73.2261 35.6349 73.7271 35.6349H74.4852C74.2522 36.5428 74.1348 37.4765 74.1357 38.4138C74.1357 44.5833 79.1527 49.6017 85.3197 49.6017C91.4866 49.6017 96.5036 44.5833 96.5036 38.4138C96.5036 37.4554 96.3816 36.5239 96.1542 35.6349H96.9122C97.4133 35.6349 97.8372 36.0588 97.8372 36.5599V50.6834ZM85.3197 46.549C89.8061 46.549 93.4562 42.899 93.4562 38.4125C93.4562 33.9287 89.8061 30.2799 85.3197 30.2799C80.8332 30.2799 77.1832 33.9287 77.1832 38.4125C77.1845 42.9003 80.8332 46.549 85.3197 46.549ZM85.3197 32.3356C88.6729 32.3356 91.4018 35.0619 91.4018 38.4138C91.4018 41.7671 88.6729 44.496 85.3197 44.496C81.9664 44.496 79.2375 41.7671 79.2375 38.4138C79.2375 35.0619 81.9664 32.3356 85.3197 32.3356ZM82.2388 36.7565C82.2388 35.5873 83.1021 34.5903 84.3034 34.2216V33.6756C84.3034 33.1077 84.7634 32.649 85.3299 32.649C85.8965 32.649 86.3565 33.109 86.3565 33.6756V34.2203C87.4049 34.5364 88.2001 35.3265 88.3826 36.3274C88.4841 36.885 88.1153 37.4207 87.5565 37.5222C86.9989 37.6237 86.4631 37.255 86.3616 36.6961C86.3115 36.4186 85.8837 36.1218 85.3287 36.1218C84.7441 36.1218 84.2906 36.4623 84.2906 36.7552C84.2906 37.0468 84.7441 37.3847 85.3287 37.3847L85.3454 37.386C87.0323 37.404 88.398 38.6027 88.398 40.0725C88.398 41.2416 87.5346 42.2386 86.3334 42.6073V43.1534C86.3334 43.7212 85.8734 44.1799 85.3068 44.1799C84.7402 44.1799 84.2803 43.72 84.2803 43.1534V42.6086C83.2319 42.2926 82.4366 41.5024 82.2542 40.5016C82.1527 39.944 82.5214 39.4083 83.0803 39.3068C83.6379 39.2053 84.1736 39.574 84.2751 40.1329C84.3253 40.4104 84.7531 40.7072 85.3081 40.7072C85.8927 40.7072 86.3462 40.3667 86.3462 40.0738C86.3462 39.7808 85.8927 39.4404 85.3081 39.4404L85.2914 39.4391C83.6045 39.4211 82.2388 38.225 82.2388 36.7565Z" fill="white" fill-opacity="0.1"/>
<defs>
<filter id="filter0_d_6717_17595" x="-4.6" y="-8.6" width="134.2" height="134.2" filterUnits="userSpaceOnUse" color-interpolation-filters="sRGB">
<feFlood flood-opacity="0" result="BackgroundImageFix"/>
<feColorMatrix in="SourceAlpha" type="matrix" values="0 0 0 0 0 0 0 0 0 0 0 0 0 0 0 0 0 0 127 0" result="hardAlpha"/>
<feOffset dy="4"/>
<feGaussianBlur stdDeviation="2"/>
<feComposite in2="hardAlpha" operator="out"/>
<feColorMatrix type="matrix" values="0 0 0 0 0.170874 0 0 0 0 0.103874 0 0 0 0 0.201923 0 0 0 0.1 0"/>
<feBlend mode="normal" in2="BackgroundImageFix" result="effect1_dropShadow_6717_17595"/>
<feBlend mode="normal" in="SourceGraphic" in2="effect1_dropShadow_6717_17595" result="shape"/>
</filter>
<clipPath id="bgblur_0_6717_17595_clip_path" transform="translate(4.6 8.6)"><rect x="4" width="117" height="117" rx="12"/>
</clipPath><clipPath id="bgblur_1_6717_17595_clip_path" transform="translate(4.6 8.6)"><rect x="5.25" y="1.25" width="114.5" height="114.5" rx="10.75"/>
</clipPath><filter id="filter1_f_6717_17595" x="31.2" y="40.2" width="170.6" height="140.6" filterUnits="userSpaceOnUse" color-interpolation-filters="sRGB">
<feFlood flood-opacity="0" result="BackgroundImageFix"/>
<feBlend mode="normal" in="SourceGraphic" in2="BackgroundImageFix" result="shape"/>
<feGaussianBlur stdDeviation="15.4" result="effect1_foregroundBlur_6717_17595"/>
</filter>
<filter id="filter2_f_6717_17595" x="-77.8" y="-62.8" width="194.6" height="155.6" filterUnits="userSpaceOnUse" color-interpolation-filters="sRGB">
<feFlood flood-opacity="0" result="BackgroundImageFix"/>
<feBlend mode="normal" in="SourceGraphic" in2="BackgroundImageFix" result="shape"/>
<feGaussianBlur stdDeviation="15.4" result="effect1_foregroundBlur_6717_17595"/>
</filter>
<filter id="filter3_f_6717_17595" x="-69.8" y="34.2" width="132.6" height="121.6" filterUnits="userSpaceOnUse" color-interpolation-filters="sRGB">
<feFlood flood-opacity="0" result="BackgroundImageFix"/>
<feBlend mode="normal" in="SourceGraphic" in2="BackgroundImageFix" result="shape"/>
<feGaussianBlur stdDeviation="15.4" result="effect1_foregroundBlur_6717_17595"/>
</filter>
<linearGradient id="paint0_linear_6717_17595" x1="-1.16176" y1="-1.29551e-06" x2="121" y2="117" gradientUnits="userSpaceOnUse">
<stop stop-color="#E3E0FF"/>
<stop offset="0.5" stop-color="white" stop-opacity="0"/>
<stop offset="1" stop-color="#E3E0FF"/>
</linearGradient>
</defs>
</svg>
