<svg width="125" height="125" viewBox="0 0 125 125" fill="none" xmlns="http://www.w3.org/2000/svg">
<foreignObject x="-4.6" y="-8.6" width="134.2" height="134.2"><div xmlns="http://www.w3.org/1999/xhtml" style="backdrop-filter:blur(4.3px);clip-path:url(#bgblur_0_6717_17578_clip_path);height:100%;width:100%"></div></foreignObject><g filter="url(#filter0_d_6717_17578)" data-figma-bg-blur-radius="8.6">
<rect x="4" width="117" height="117" rx="12" fill="black" fill-opacity="0.64" shape-rendering="crispEdges"/>
</g>
<mask id="mask0_6717_17578" style="mask-type:alpha" maskUnits="userSpaceOnUse" x="4" y="0" width="117" height="117">
<foreignObject x="-4.6" y="-8.6" width="134.2" height="134.2"><div xmlns="http://www.w3.org/1999/xhtml" style="backdrop-filter:blur(2px);clip-path:url(#bgblur_1_6717_17578_clip_path);height:100%;width:100%"></div></foreignObject><rect data-figma-bg-blur-radius="4" x="5.25" y="1.25" width="114.5" height="114.5" rx="10.75" stroke="url(#paint0_linear_6717_17578)" stroke-width="2.5"/>
</mask>
<g mask="url(#mask0_6717_17578)">
<g filter="url(#filter1_f_6717_17578)">
<ellipse cx="116.5" cy="110.5" rx="54.5" ry="39.5" fill="white" fill-opacity="0.54"/>
</g>
<g filter="url(#filter2_f_6717_17578)">
<ellipse cx="19.5" cy="15" rx="66.5" ry="47" fill="white" fill-opacity="0.72"/>
</g>
<g filter="url(#filter3_f_6717_17578)">
<ellipse cx="-3.5" cy="95" rx="35.5" ry="30" fill="white" fill-opacity="0.06"/>
<ellipse cx="-3.5" cy="95" rx="35.5" ry="30" fill="white" fill-opacity="0.06"/>
</g>
</g>
<path d="M94.1591 58.8036C94.1591 58.2284 93.6891 57.7514 93.1069 57.7514C92.5247 57.7514 92.0547 58.2284 92.0547 58.8036V71.2268H80.8031C80.8732 70.8691 80.8522 61.1817 80.8522 61.1115C80.8522 54.8543 75.7665 49.7616 69.5023 49.7616H67.454V49.0251C68.9477 48.0867 70.1748 46.7798 71.0175 45.2301H71.7611C73.0027 45.2301 74.0129 44.22 74.0129 42.9783V42.7047C75.2826 42.6066 76.2856 41.5473 76.2856 40.2567V38.6503H87.9091C90.1959 38.6503 92.0548 40.5162 92.0548 42.7961V53.4094C92.0548 53.9916 92.5249 54.4616 93.107 54.4616C93.6892 54.4616 94.1592 53.9916 94.1592 53.4094V42.7961C94.1592 39.3519 91.3604 36.546 87.9091 36.546H76.2855V36.5249C76.2855 35.2271 75.2754 34.1749 74.0056 34.0768C73.6059 27.8335 68.415 22.874 62.0737 22.874C55.7324 22.874 50.5414 27.8335 50.1417 34.0765C48.8719 34.1748 47.8618 35.227 47.8618 36.5246V36.5457H36.084C32.6398 36.5457 29.8339 39.3516 29.8339 42.7958V77.582C29.8339 81.0122 32.6467 83.8321 36.084 83.8321H54.9256L52.1057 93.0214H49.2928C48.7107 93.0214 48.2406 93.4984 48.2406 94.0736C48.2404 94.2118 48.2675 94.3487 48.3203 94.4765C48.3732 94.6042 48.4506 94.7203 48.5484 94.818C48.6461 94.9158 48.7622 94.9933 48.8899 95.0461C49.0177 95.0989 49.1546 95.126 49.2928 95.1258H74.7072C74.8454 95.126 74.9823 95.0989 75.1101 95.0461C75.2378 94.9933 75.3539 94.9158 75.4516 94.818C75.5494 94.7203 75.6269 94.6042 75.6797 94.4765C75.7325 94.3487 75.7596 94.2118 75.7594 94.0736C75.7594 93.4984 75.2894 93.0214 74.7072 93.0214H71.8943L69.0744 83.8321H87.909C91.3462 83.8321 94.1662 81.0192 94.1662 77.582V77.2663C94.1662 76.3124 94.1662 72.4263 94.1591 58.8036ZM71.9083 42.9783C71.9083 43.0555 71.8383 43.1256 71.7611 43.1256H66.8788C66.4789 42.2487 65.5951 41.6314 64.5709 41.6314H62.6839C61.281 41.6314 60.1376 42.7748 60.1376 44.1778C60.1376 45.5808 61.281 46.7171 62.6839 46.7171H64.5709C65.5951 46.7171 66.479 46.1068 66.8788 45.23H68.5343C67.0612 47.1942 64.7182 48.4708 62.0737 48.4708C58.2997 48.4708 55.1291 45.8753 54.2382 42.382C54.415 42.1856 54.5125 41.9306 54.5118 41.6664V38.2714H56.2656C57.3598 38.2714 58.3279 37.5348 58.6155 36.4756C58.6506 36.3354 58.7839 36.2371 58.9312 36.2371H65.2164C65.3637 36.2371 65.4969 36.3354 65.5321 36.4756C65.8197 37.5348 66.7878 38.2714 67.882 38.2714H69.6357V41.6666C69.6355 41.8048 69.6626 41.9417 69.7154 42.0694C69.7683 42.1972 69.8458 42.3132 69.9435 42.411C70.0412 42.5087 70.1573 42.5862 70.285 42.639C70.4128 42.6918 70.5497 42.7189 70.6879 42.7187H71.9085V42.9783H71.9083ZM65.3495 50.0281V53.1777C65.3495 55.0227 63.8484 56.5238 61.9964 56.5238C60.1515 56.5238 58.6504 55.0227 58.6504 53.1777V49.979C60.8251 50.7577 63.1609 50.7787 65.3495 50.0281ZM74.1811 36.5247V40.2565C74.1811 40.4529 74.0198 40.6142 73.8163 40.6142H71.74V36.167H73.8163C74.0198 36.167 74.1811 36.3284 74.1811 36.5247ZM62.0737 24.9785C67.2505 24.9785 71.4946 28.9839 71.9014 34.0626H71.8594C70.5827 29.7205 66.5633 26.7323 62.0737 26.7323H62.0597C57.6615 26.7323 53.5929 29.6083 52.2881 34.0626H52.246C52.6529 28.9839 56.8968 24.9785 62.0737 24.9785ZM49.9662 36.5247C49.9666 36.43 50.0044 36.3392 50.0714 36.2722C50.1384 36.2052 50.2292 36.1674 50.3239 36.167H52.4073V40.6144H50.3239C50.2292 40.614 50.1384 40.5762 50.0714 40.5092C50.0044 40.4422 49.9666 40.3514 49.9662 40.2567V36.5247ZM31.9384 71.2268V42.7961C31.9384 40.5162 33.7972 38.6503 36.0841 38.6503H47.8618V40.2567C47.8618 41.6176 48.9702 42.7189 50.3241 42.7189H52.1619C52.7721 45.3144 54.3715 47.517 56.5461 48.9269V49.7617H54.4907C48.2336 49.7617 43.1409 54.8545 43.1409 61.1116C43.162 71.1077 43.0988 70.7499 43.1969 71.227L31.9384 71.2268ZM49.2928 71.2268H45.7644C45.4768 71.2268 45.2452 70.9953 45.2452 70.7147V67.1794H49.2927V71.2268H49.2928ZM69.6917 93.0215H54.3083L57.1283 83.8322H66.8717L69.6917 93.0215ZM51.3972 71.2268V63.0757C51.3972 62.5004 50.9202 62.0235 50.345 62.0235C49.7628 62.0235 49.2928 62.5004 49.2928 63.0757V65.0748H45.2454V61.1115C45.2454 56.0117 49.398 51.866 54.4907 51.866H56.5461V53.1777C56.5461 56.187 58.9873 58.6282 61.9965 58.6282C65.0058 58.6282 67.454 56.187 67.454 53.1777V51.866H69.5023C74.602 51.866 78.7477 56.0117 78.7477 61.1115V65.0748H74.7072V63.0757C74.7072 62.5004 74.2372 62.0235 73.655 62.0235C73.0728 62.0235 72.6028 62.5004 72.6028 63.0757V71.2268H51.3972ZM78.7477 67.1792V70.7146C78.7477 70.9951 78.5162 71.2267 78.2356 71.2267H74.7072V67.1792H78.7477ZM81.8132 78.5782H72.8975C72.7593 78.5784 72.6224 78.5514 72.4946 78.4985C72.3669 78.4457 72.2508 78.3682 72.1531 78.2705C72.0553 78.1727 71.9778 78.0567 71.925 77.9289C71.8722 77.8012 71.8451 77.6643 71.8453 77.5261C71.8453 76.9508 72.3153 76.4739 72.8975 76.4739H81.8132C82.3954 76.4739 82.8654 76.9508 82.8654 77.5261C82.8656 77.6643 82.8385 77.8012 82.7857 77.9289C82.7329 78.0567 82.6554 78.1727 82.5577 78.2705C82.4599 78.3682 82.3438 78.4457 82.2161 78.4985C82.0884 78.5514 81.9514 78.5784 81.8132 78.5782ZM88.7507 78.5782H85.4819C85.3436 78.5784 85.2067 78.5514 85.079 78.4985C84.9512 78.4457 84.8352 78.3682 84.7374 78.2705C84.6397 78.1727 84.5622 78.0567 84.5094 77.9289C84.4566 77.8012 84.4295 77.6643 84.4297 77.5261C84.4297 76.9508 84.8997 76.4739 85.4819 76.4739H88.7507C89.3329 76.4739 89.8029 76.9508 89.8029 77.5261C89.8031 77.6643 89.776 77.8012 89.7232 77.9289C89.6704 78.0567 89.5929 78.1727 89.4952 78.2705C89.3974 78.3682 89.2813 78.4457 89.1536 78.4985C89.0259 78.5514 88.8889 78.5784 88.7507 78.5782Z" fill="white"/>
<path d="M94.159 58.8036C94.159 58.2284 93.6889 57.7514 93.1068 57.7514C92.5246 57.7514 92.0546 58.2284 92.0546 58.8036V71.2268H80.803C80.8731 70.8691 80.8521 61.1817 80.8521 61.1115C80.8521 54.8543 75.7663 49.7616 69.5022 49.7616H67.4539V49.0251C68.9476 48.0867 70.1747 46.7798 71.0173 45.2301H71.761C73.0026 45.2301 74.0127 44.22 74.0127 42.9783V42.7047C75.2825 42.6066 76.2855 41.5473 76.2855 40.2567V38.6503H87.909C90.1958 38.6503 92.0547 40.5162 92.0547 42.7961V53.4094C92.0547 53.9916 92.5247 54.4616 93.1069 54.4616C93.6891 54.4616 94.1591 53.9916 94.1591 53.4094V42.7961C94.1591 39.3519 91.3603 36.546 87.909 36.546H76.2854V36.5249C76.2854 35.2271 75.2752 34.1749 74.0055 34.0768C73.6057 27.8335 68.4149 22.874 62.0736 22.874C55.7323 22.874 50.5413 27.8335 50.1415 34.0765C48.8718 34.1748 47.8617 35.227 47.8617 36.5246V36.5457H36.0838C32.6397 36.5457 29.8337 39.3516 29.8337 42.7958V77.582C29.8337 81.0122 32.6466 83.8321 36.0838 83.8321H54.9255L52.1056 93.0214H49.2927C48.7105 93.0214 48.2405 93.4984 48.2405 94.0736C48.2403 94.2118 48.2674 94.3487 48.3202 94.4765C48.373 94.6042 48.4505 94.7203 48.5483 94.818C48.646 94.9158 48.7621 94.9933 48.8898 95.0461C49.0176 95.0989 49.1545 95.126 49.2927 95.1258H74.7071C74.8453 95.126 74.9822 95.0989 75.11 95.0461C75.2377 94.9933 75.3538 94.9158 75.4515 94.818C75.5493 94.7203 75.6267 94.6042 75.6796 94.4765C75.7324 94.3487 75.7595 94.2118 75.7593 94.0736C75.7593 93.4984 75.2892 93.0214 74.7071 93.0214H71.8942L69.0743 83.8321H87.9088C91.3461 83.8321 94.166 81.0192 94.166 77.582V77.2663C94.166 76.3124 94.166 72.4263 94.159 58.8036ZM71.9082 42.9783C71.9082 43.0555 71.8381 43.1256 71.761 43.1256H66.8787C66.4788 42.2487 65.595 41.6314 64.5708 41.6314H62.6838C61.2808 41.6314 60.1375 42.7748 60.1375 44.1778C60.1375 45.5808 61.2808 46.7171 62.6838 46.7171H64.5708C65.595 46.7171 66.4789 46.1068 66.8787 45.23H68.5341C67.0611 47.1942 64.7181 48.4708 62.0736 48.4708C58.2996 48.4708 55.129 45.8753 54.2381 42.382C54.4149 42.1856 54.5124 41.9306 54.5117 41.6664V38.2714H56.2655C57.3597 38.2714 58.3278 37.5348 58.6154 36.4756C58.6505 36.3354 58.7838 36.2371 58.9311 36.2371H65.2163C65.3636 36.2371 65.4968 36.3354 65.5319 36.4756C65.8196 37.5348 66.7876 38.2714 67.8819 38.2714H69.6356V41.6666C69.6354 41.8048 69.6625 41.9417 69.7153 42.0694C69.7681 42.1972 69.8456 42.3132 69.9434 42.411C70.0411 42.5087 70.1572 42.5862 70.2849 42.639C70.4127 42.6918 70.5496 42.7189 70.6878 42.7187H71.9084V42.9783H71.9082ZM65.3494 50.0281V53.1777C65.3494 55.0227 63.8483 56.5238 61.9963 56.5238C60.1513 56.5238 58.6502 55.0227 58.6502 53.1777V49.979C60.825 50.7577 63.1608 50.7787 65.3494 50.0281ZM74.181 36.5247V40.2565C74.181 40.4529 74.0197 40.6142 73.8162 40.6142H71.7399V36.167H73.8162C74.0197 36.167 74.181 36.3284 74.181 36.5247ZM62.0736 24.9785C67.2504 24.9785 71.4944 28.9839 71.9013 34.0626H71.8592C70.5826 29.7205 66.5632 26.7323 62.0736 26.7323H62.0596C57.6613 26.7323 53.5928 29.6083 52.288 34.0626H52.2459C52.6528 28.9839 56.8966 24.9785 62.0736 24.9785ZM49.9661 36.5247C49.9665 36.43 50.0043 36.3392 50.0713 36.2722C50.1383 36.2052 50.229 36.1674 50.3238 36.167H52.4072V40.6144H50.3238C50.229 40.614 50.1383 40.5762 50.0713 40.5092C50.0043 40.4422 49.9665 40.3514 49.9661 40.2567V36.5247ZM31.9383 71.2268V42.7961C31.9383 40.5162 33.7971 38.6503 36.084 38.6503H47.8617V40.2567C47.8617 41.6176 48.9701 42.7189 50.3239 42.7189H52.1618C52.772 45.3144 54.3714 47.517 56.546 48.9269V49.7617H54.4906C48.2334 49.7617 43.1407 54.8545 43.1407 61.1116C43.1618 71.1077 43.0987 70.7499 43.1968 71.227L31.9383 71.2268ZM49.2927 71.2268H45.7643C45.4766 71.2268 45.2451 70.9953 45.2451 70.7147V67.1794H49.2926V71.2268H49.2927ZM69.6915 93.0215H54.3082L57.1282 83.8322H66.8716L69.6915 93.0215ZM51.3971 71.2268V63.0757C51.3971 62.5004 50.9201 62.0235 50.3449 62.0235C49.7627 62.0235 49.2927 62.5004 49.2927 63.0757V65.0748H45.2453V61.1115C45.2453 56.0117 49.3979 51.866 54.4906 51.866H56.546V53.1777C56.546 56.187 58.9871 58.6282 61.9964 58.6282C65.0057 58.6282 67.4539 56.187 67.4539 53.1777V51.866H69.5022C74.6019 51.866 78.7476 56.0117 78.7476 61.1115V65.0748H74.7071V63.0757C74.7071 62.5004 74.2371 62.0235 73.6549 62.0235C73.0727 62.0235 72.6027 62.5004 72.6027 63.0757V71.2268H51.3971ZM78.7476 67.1792V70.7146C78.7476 70.9951 78.5161 71.2267 78.2355 71.2267H74.7071V67.1792H78.7476ZM81.8131 78.5782H72.8974C72.7592 78.5784 72.6223 78.5514 72.4945 78.4985C72.3668 78.4457 72.2507 78.3682 72.153 78.2705C72.0552 78.1727 71.9777 78.0567 71.9249 77.9289C71.8721 77.8012 71.845 77.6643 71.8452 77.5261C71.8452 76.9508 72.3152 76.4739 72.8974 76.4739H81.8131C82.3953 76.4739 82.8653 76.9508 82.8653 77.5261C82.8655 77.6643 82.8384 77.8012 82.7856 77.9289C82.7328 78.0567 82.6553 78.1727 82.5575 78.2705C82.4598 78.3682 82.3437 78.4457 82.216 78.4985C82.0882 78.5514 81.9513 78.5784 81.8131 78.5782ZM88.7506 78.5782H85.4817C85.3435 78.5784 85.2066 78.5514 85.0789 78.4985C84.9511 78.4457 84.835 78.3682 84.7373 78.2705C84.6396 78.1727 84.5621 78.0567 84.5093 77.9289C84.4564 77.8012 84.4294 77.6643 84.4295 77.5261C84.4295 76.9508 84.8996 76.4739 85.4817 76.4739H88.7506C89.3328 76.4739 89.8028 76.9508 89.8028 77.5261C89.803 77.6643 89.7759 77.8012 89.7231 77.9289C89.6703 78.0567 89.5928 78.1727 89.495 78.2705C89.3973 78.3682 89.2812 78.4457 89.1535 78.4985C89.0257 78.5514 88.8888 78.5784 88.7506 78.5782Z" fill="white"/>
<defs>
<filter id="filter0_d_6717_17578" x="-4.6" y="-8.6" width="134.2" height="134.2" filterUnits="userSpaceOnUse" color-interpolation-filters="sRGB">
<feFlood flood-opacity="0" result="BackgroundImageFix"/>
<feColorMatrix in="SourceAlpha" type="matrix" values="0 0 0 0 0 0 0 0 0 0 0 0 0 0 0 0 0 0 127 0" result="hardAlpha"/>
<feOffset dy="4"/>
<feGaussianBlur stdDeviation="2"/>
<feComposite in2="hardAlpha" operator="out"/>
<feColorMatrix type="matrix" values="0 0 0 0 0.170874 0 0 0 0 0.103874 0 0 0 0 0.201923 0 0 0 0.1 0"/>
<feBlend mode="normal" in2="BackgroundImageFix" result="effect1_dropShadow_6717_17578"/>
<feBlend mode="normal" in="SourceGraphic" in2="effect1_dropShadow_6717_17578" result="shape"/>
</filter>
<clipPath id="bgblur_0_6717_17578_clip_path" transform="translate(4.6 8.6)"><rect x="4" width="117" height="117" rx="12"/>
</clipPath><clipPath id="bgblur_1_6717_17578_clip_path" transform="translate(4.6 8.6)"><rect x="5.25" y="1.25" width="114.5" height="114.5" rx="10.75"/>
</clipPath><filter id="filter1_f_6717_17578" x="31.2" y="40.2" width="170.6" height="140.6" filterUnits="userSpaceOnUse" color-interpolation-filters="sRGB">
<feFlood flood-opacity="0" result="BackgroundImageFix"/>
<feBlend mode="normal" in="SourceGraphic" in2="BackgroundImageFix" result="shape"/>
<feGaussianBlur stdDeviation="15.4" result="effect1_foregroundBlur_6717_17578"/>
</filter>
<filter id="filter2_f_6717_17578" x="-77.8" y="-62.8" width="194.6" height="155.6" filterUnits="userSpaceOnUse" color-interpolation-filters="sRGB">
<feFlood flood-opacity="0" result="BackgroundImageFix"/>
<feBlend mode="normal" in="SourceGraphic" in2="BackgroundImageFix" result="shape"/>
<feGaussianBlur stdDeviation="15.4" result="effect1_foregroundBlur_6717_17578"/>
</filter>
<filter id="filter3_f_6717_17578" x="-69.8" y="34.2" width="132.6" height="121.6" filterUnits="userSpaceOnUse" color-interpolation-filters="sRGB">
<feFlood flood-opacity="0" result="BackgroundImageFix"/>
<feBlend mode="normal" in="SourceGraphic" in2="BackgroundImageFix" result="shape"/>
<feGaussianBlur stdDeviation="15.4" result="effect1_foregroundBlur_6717_17578"/>
</filter>
<linearGradient id="paint0_linear_6717_17578" x1="-1.16176" y1="-1.29551e-06" x2="121" y2="117" gradientUnits="userSpaceOnUse">
<stop stop-color="#E3E0FF"/>
<stop offset="0.5" stop-color="white" stop-opacity="0"/>
<stop offset="1" stop-color="#E3E0FF"/>
</linearGradient>
</defs>
</svg>
